<?xml version="1.0" encoding="UTF-8" standalone="no"?>
<svg
   width="600"
   height="450"
   viewBox="0 0 600 450"
   version="1.1"
   id="svg166"
   sodipodi:docname="impactfluxes-primordial-only.svg"
   inkscape:version="1.3.2 (091e20e, 2023-11-25)"
   xmlns:inkscape="http://www.inkscape.org/namespaces/inkscape"
   xmlns:sodipodi="http://sodipodi.sourceforge.net/DTD/sodipodi-0.dtd"
   xmlns:xlink="http://www.w3.org/1999/xlink"
   xmlns="http://www.w3.org/2000/svg"
   xmlns:svg="http://www.w3.org/2000/svg">
  <sodipodi:namedview
     id="namedview166"
     pagecolor="#505050"
     bordercolor="#ffffff"
     borderopacity="1"
     inkscape:showpageshadow="0"
     inkscape:pageopacity="0"
     inkscape:pagecheckerboard="1"
     inkscape:deskcolor="#505050"
     inkscape:zoom="0.76993263"
     inkscape:cx="290.28514"
     inkscape:cy="227.29261"
     inkscape:window-width="1312"
     inkscape:window-height="449"
     inkscape:window-x="0"
     inkscape:window-y="33"
     inkscape:window-maximized="0"
     inkscape:current-layer="svg166" />
  <defs
     id="defs58">
    <g
       id="g55">
      <g
         id="glyph-0-0-12835ccc">
        <path
           d="M 14.828125 0 L 8.96875 -16.75 L 6.40625 -16.75 L 0.546875 0 L 2.59375 0 L 4.265625 -4.9375 L 11.046875 -4.9375 L 12.71875 0 Z M 10.53125 -6.71875 L 4.75 -6.71875 L 7.578125 -14.875 L 7.703125 -14.875 Z M 10.53125 -6.71875 "
           id="path1" />
      </g>
      <g
         id="glyph-0-1-12835ccc">
        <path
           d="M 12.484375 1.375 C 12.484375 -0.671875 11.15625 -1.921875 8.09375 -1.921875 L 5.453125 -1.921875 C 4.3125 -1.921875 3.546875 -2.109375 3.546875 -2.859375 C 3.546875 -3.625 4.375 -4.03125 5.1875 -4.25 C 5.546875 -4.171875 5.96875 -4.125 6.390625 -4.125 C 9.21875 -4.125 11.0625 -5.875 11.0625 -8.40625 C 11.0625 -9.71875 10.53125 -10.828125 9.640625 -11.59375 L 9.640625 -12.390625 L 12 -12.390625 L 12 -14.0625 L 10.15625 -14.0625 C 9.125 -14.0625 8.71875 -13.375 8.71875 -12.40625 L 8.71875 -12.1875 C 8.046875 -12.5 7.25 -12.671875 6.359375 -12.671875 C 3.546875 -12.671875 1.703125 -10.921875 1.703125 -8.40625 C 1.703125 -6.671875 2.5625 -5.296875 4.03125 -4.609375 L 4.03125 -4.515625 C 2.78125 -4.203125 1.890625 -3.59375 1.890625 -2.359375 C 1.890625 -1.515625 2.296875 -0.953125 3 -0.625 L 3 -0.359375 C 1.78125 -0.03125 1.03125 0.703125 1.03125 2.046875 C 1.03125 3.984375 2.609375 5.09375 6.484375 5.09375 C 10.46875 5.09375 12.484375 3.90625 12.484375 1.375 Z M 10.6875 1.515625 C 10.6875 2.859375 9.4375 3.53125 7.296875 3.53125 L 5.515625 3.53125 C 3.578125 3.53125 2.828125 2.640625 2.828125 1.5625 C 2.828125 0.796875 3.1875 0.234375 3.984375 -0.125 L 8.109375 -0.125 C 10.03125 -0.125 10.6875 0.53125 10.6875 1.515625 Z M 6.390625 -5.65625 C 4.75 -5.65625 3.71875 -6.4375 3.71875 -8.0625 L 3.71875 -8.734375 C 3.71875 -10.375 4.75 -11.140625 6.390625 -11.140625 C 8.015625 -11.140625 9.046875 -10.375 9.046875 -8.734375 L 9.046875 -8.0625 C 9.046875 -6.4375 8.015625 -5.65625 6.390625 -5.65625 Z M 6.390625 -5.65625 "
           id="path2" />
      </g>
      <g
         id="glyph-0-2-12835ccc">
        <path
           d="M 6.703125 0.28125 C 9.03125 0.28125 10.796875 -0.859375 11.59375 -2.546875 L 10.21875 -3.53125 C 9.578125 -2.15625 8.375 -1.390625 6.8125 -1.390625 C 4.515625 -1.390625 3.140625 -3 3.140625 -5.140625 L 3.140625 -5.71875 L 12.046875 -5.71875 L 12.046875 -6.625 C 12.046875 -10.125 10.015625 -12.671875 6.703125 -12.671875 C 3.34375 -12.671875 1.125 -10.125 1.125 -6.1875 C 1.125 -2.25 3.34375 0.28125 6.703125 0.28125 Z M 6.703125 -11.0625 C 8.65625 -11.0625 9.984375 -9.59375 9.984375 -7.421875 L 9.984375 -7.15625 L 3.140625 -7.15625 L 3.140625 -7.3125 C 3.140625 -9.484375 4.609375 -11.0625 6.703125 -11.0625 Z M 6.703125 -11.0625 "
           id="path3" />
      </g>
      <g
         id="glyph-0-3-12835ccc" />
      <g
         id="glyph-0-4-12835ccc">
        <path
           d="M 1.984375 -7.484375 C 1.984375 -2.8125 3.953125 1.265625 6.34375 3.28125 L 8.15625 3.28125 C 5.5625 0.984375 3.796875 -3.078125 3.796875 -6.4375 L 3.796875 -8.5 C 3.796875 -11.859375 5.5 -15.84375 8.15625 -18.234375 L 6.34375 -18.234375 C 3.890625 -16.15625 1.984375 -12.125 1.984375 -7.484375 Z M 1.984375 -7.484375 "
           id="path4" />
      </g>
      <g
         id="glyph-0-5-12835ccc">
        <path
           d="M 2.234375 0 L 4.203125 0 L 4.203125 -14.109375 L 4.3125 -14.109375 L 5.734375 -11.296875 L 9.75 -4.015625 L 13.75 -11.296875 L 15.171875 -14.109375 L 15.28125 -14.109375 L 15.28125 0 L 17.25 0 L 17.25 -16.75 L 14.65625 -16.75 L 9.84375 -7.734375 L 9.71875 -7.734375 L 4.921875 -16.75 L 2.234375 -16.75 Z M 2.234375 0 "
           id="path5" />
      </g>
      <g
         id="glyph-0-6-12835ccc">
        <path
           d="M 12.125 0 L 12.125 -1.6875 L 10.703125 -1.6875 L 10.703125 -8.5 C 10.703125 -11.109375 8.921875 -12.671875 5.953125 -12.671875 C 3.71875 -12.671875 2.234375 -11.5625 1.5625 -10.25 L 2.71875 -9.171875 C 3.390625 -10.296875 4.375 -11.015625 5.859375 -11.015625 C 7.828125 -11.015625 8.78125 -10.0625 8.78125 -8.296875 L 8.78125 -7.078125 L 6.34375 -7.078125 C 2.734375 -7.078125 1.0625 -5.78125 1.0625 -3.453125 C 1.0625 -1.15625 2.59375 0.28125 5.203125 0.28125 C 6.9375 0.28125 8.25 -0.5 8.78125 -2.015625 L 8.90625 -2.015625 C 9.046875 -0.859375 9.625 0 11.046875 0 Z M 5.515625 -1.34375 C 4.03125 -1.34375 3.078125 -2.046875 3.078125 -3.265625 L 3.078125 -3.765625 C 3.078125 -4.96875 4.0625 -5.640625 6.234375 -5.640625 L 8.78125 -5.640625 L 8.78125 -3.59375 C 8.78125 -2.328125 7.421875 -1.34375 5.515625 -1.34375 Z M 5.515625 -1.34375 "
           id="path6" />
      </g>
      <g
         id="glyph-0-7-12835ccc">
        <path
           d="M 6.046875 -7.484375 C 6.046875 -12.125 4.15625 -16.15625 1.703125 -18.234375 L -0.125 -18.234375 C 2.546875 -15.84375 4.25 -11.859375 4.25 -8.5 L 4.25 -6.4375 C 4.25 -3.078125 2.46875 0.984375 -0.125 3.28125 L 1.703125 3.28125 C 4.078125 1.265625 6.046875 -2.8125 6.046875 -7.484375 Z M 6.046875 -7.484375 "
           id="path7" />
      </g>
      <g
         id="glyph-0-8-12835ccc">
        <path
           d="M 10.921875 0 L 10.921875 -3.28125 L 13.34375 -3.28125 L 13.34375 -4.96875 L 10.921875 -4.96875 L 10.921875 -16.75 L 7.921875 -16.75 L 0.90625 -5.0625 L 0.90625 -3.28125 L 9 -3.28125 L 9 0 Z M 8.875 -15.1875 L 9 -15.1875 L 9 -4.96875 L 2.8125 -4.96875 Z M 8.875 -15.1875 "
           id="path8" />
      </g>
      <g
         id="glyph-0-9-12835ccc">
        <path
           d="M 11.953125 -16.75 L 2.96875 -16.75 L 2.375 -7.53125 L 4.078125 -7.296875 C 4.78125 -8.0625 5.546875 -8.71875 7.078125 -8.71875 C 9.359375 -8.71875 10.578125 -7.4375 10.578125 -5.234375 L 10.578125 -4.984375 C 10.578125 -2.78125 9.359375 -1.515625 7.078125 -1.515625 C 5.0625 -1.515625 4.21875 -2.40625 3.359375 -3.71875 L 1.84375 -2.5625 C 2.859375 -1.125 4.296875 0.28125 7.078125 0.28125 C 10.609375 0.28125 12.71875 -1.984375 12.71875 -5.25 C 12.71875 -8.5 10.609375 -10.4375 7.734375 -10.4375 C 5.96875 -10.4375 5.09375 -9.71875 4.296875 -8.59375 L 4.125 -8.59375 L 4.609375 -14.96875 L 11.953125 -14.96875 Z M 11.953125 -16.75 "
           id="path9" />
      </g>
      <g
         id="glyph-0-10-12835ccc">
        <path
           d="M 7.203125 0.28125 C 11.203125 0.28125 12.953125 -2.90625 12.953125 -8.375 C 12.953125 -13.84375 11.203125 -17.046875 7.203125 -17.046875 C 3.1875 -17.046875 1.4375 -13.84375 1.4375 -8.375 C 1.4375 -2.90625 3.1875 0.28125 7.203125 0.28125 Z M 7.203125 -1.46875 C 4.578125 -1.46875 3.546875 -3.765625 3.546875 -7.015625 L 3.546875 -9.75 C 3.546875 -12.984375 4.578125 -15.28125 7.203125 -15.28125 C 9.8125 -15.28125 10.84375 -12.984375 10.84375 -9.75 L 10.84375 -7.015625 C 10.84375 -3.765625 9.8125 -1.46875 7.203125 -1.46875 Z M 7.203125 -1.46875 "
           id="path10" />
      </g>
      <g
         id="glyph-0-11-12835ccc">
        <path
           d="M 13.125 0 L 13.125 -1.78125 L 8.8125 -1.78125 L 8.8125 -16.75 L 5.65625 -16.75 L 1.21875 -12.59375 L 2.40625 -11.328125 L 6.625 -15.265625 L 6.796875 -15.265625 L 6.796875 -1.78125 L 2.109375 -1.78125 L 2.109375 0 Z M 13.125 0 "
           id="path11" />
      </g>
      <g
         id="glyph-0-12-12835ccc">
        <path
           d="M 13.203125 -14.96875 L 13.203125 -16.75 L 0.53125 -16.75 L 0.53125 -14.96875 L 5.859375 -14.96875 L 5.859375 0 L 7.875 0 L 7.875 -14.96875 Z M 13.203125 -14.96875 "
           id="path12" />
      </g>
      <g
         id="glyph-0-13-12835ccc">
        <path
           d="M 3 -15.28125 C 3.8125 -15.28125 4.171875 -15.71875 4.171875 -16.375 L 4.171875 -16.6875 C 4.171875 -17.328125 3.8125 -17.765625 3 -17.765625 C 2.1875 -17.765625 1.828125 -17.328125 1.828125 -16.6875 L 1.828125 -16.375 C 1.828125 -15.71875 2.1875 -15.28125 3 -15.28125 Z M 2.046875 0 L 3.953125 0 L 3.953125 -12.390625 L 2.046875 -12.390625 Z M 2.046875 0 "
           id="path13" />
      </g>
      <g
         id="glyph-0-14-12835ccc">
        <path
           d="M 3.953125 0 L 3.953125 -8.59375 C 3.953125 -10.171875 5.40625 -10.9375 6.90625 -10.9375 C 8.734375 -10.9375 9.578125 -9.8125 9.578125 -7.609375 L 9.578125 0 L 11.5 0 L 11.5 -8.59375 C 11.5 -10.171875 12.890625 -10.9375 14.40625 -10.9375 C 16.265625 -10.9375 17.109375 -9.796875 17.109375 -7.609375 L 17.109375 0 L 19.03125 0 L 19.03125 -7.9375 C 19.03125 -10.9375 17.515625 -12.671875 15 -12.671875 C 12.890625 -12.671875 11.6875 -11.5 11.234375 -10.15625 L 11.1875 -10.15625 C 10.515625 -11.921875 9.03125 -12.671875 7.390625 -12.671875 C 5.46875 -12.671875 4.609375 -11.640625 4.0625 -10.375 L 3.953125 -10.375 L 3.953125 -12.390625 L 2.046875 -12.390625 L 2.046875 0 Z M 3.953125 0 "
           id="path14" />
      </g>
      <g
         id="glyph-0-15-12835ccc">
        <path
           d="M 6.671875 -3.953125 L 6 -1.9375 L 5.875 -1.9375 L 5.296875 -3.953125 L 2.328125 -12.390625 L 0.40625 -12.390625 L 5.046875 0.484375 L 4.109375 3.125 L 2.15625 3.125 L 2.15625 4.796875 L 3.140625 4.796875 C 4.96875 4.796875 5.46875 4.375 6.03125 2.875 L 11.5625 -12.390625 L 9.671875 -12.390625 Z M 6.671875 -3.953125 "
           id="path15" />
      </g>
      <g
         id="glyph-0-16-12835ccc">
        <path
           d="M 12.796875 -1.78125 L 3.984375 -1.78125 L 8.5 -5.828125 C 10.625 -7.75 12.171875 -9.578125 12.171875 -12.171875 C 12.171875 -15.03125 10.296875 -17.046875 7.03125 -17.046875 C 3.796875 -17.046875 2.296875 -15.078125 1.65625 -13.109375 L 3.453125 -12.40625 C 3.90625 -13.984375 4.875 -15.234375 6.9375 -15.234375 C 9 -15.234375 10.03125 -13.96875 10.03125 -12.125 L 10.03125 -11.828125 C 10.03125 -10.21875 8.828125 -8.546875 7.265625 -7.109375 L 1.796875 -2.0625 L 1.796875 0 L 12.796875 0 Z M 12.796875 -1.78125 "
           id="path16" />
      </g>
      <g
         id="glyph-1-0-12835ccc">
        <path
           d="M 0 -8.15625 L -1.6875 -8.15625 L -1.6875 -5.8125 L -15.078125 -5.8125 L -15.078125 -8.15625 L -16.75 -8.15625 L -16.75 -1.4375 L -15.078125 -1.4375 L -15.078125 -3.796875 L -1.6875 -3.796875 L -1.6875 -1.4375 L 0 -1.4375 Z M 0 -8.15625 "
           id="path17" />
      </g>
      <g
         id="glyph-2-0-12835ccc">
        <path
           d="M 0 -3.953125 L -8.59375 -3.953125 C -10.171875 -3.953125 -10.9375 -5.40625 -10.9375 -6.90625 C -10.9375 -8.734375 -9.8125 -9.578125 -7.609375 -9.578125 L 0 -9.578125 L 0 -11.5 L -8.59375 -11.5 C -10.171875 -11.5 -10.9375 -12.890625 -10.9375 -14.40625 C -10.9375 -16.265625 -9.796875 -17.109375 -7.609375 -17.109375 L 0 -17.109375 L 0 -19.03125 L -7.9375 -19.03125 C -10.9375 -19.03125 -12.671875 -17.515625 -12.671875 -15 C -12.671875 -12.890625 -11.5 -11.6875 -10.15625 -11.234375 L -10.15625 -11.1875 C -11.921875 -10.515625 -12.671875 -9.03125 -12.671875 -7.390625 C -12.671875 -5.46875 -11.640625 -4.609375 -10.375 -4.0625 L -10.375 -3.953125 L -12.390625 -3.953125 L -12.390625 -2.046875 L 0 -2.046875 Z M 0 -3.953125 "
           id="path18" />
      </g>
      <g
         id="glyph-2-1-12835ccc">
        <path
           d="M 4.796875 -2.046875 L 4.796875 -3.953125 L -2.015625 -3.953125 L -2.015625 -4.0625 C -0.484375 -4.796875 0.28125 -5.96875 0.28125 -7.6875 C 0.28125 -10.78125 -2.234375 -12.71875 -6.1875 -12.71875 C -10.15625 -12.71875 -12.671875 -10.78125 -12.671875 -7.6875 C -12.671875 -5.96875 -11.921875 -4.703125 -10.375 -4.0625 L -10.375 -3.953125 L -12.390625 -3.953125 L -12.390625 -2.046875 Z M -1.4375 -7.15625 C -1.4375 -5.40625 -2.359375 -3.953125 -3.953125 -3.953125 L -8.5625 -3.953125 C -9.9375 -3.953125 -10.9375 -5.40625 -10.9375 -7.15625 C -10.9375 -9.3125 -9.453125 -10.65625 -7.25 -10.65625 L -5.140625 -10.65625 C -2.921875 -10.65625 -1.4375 -9.3125 -1.4375 -7.15625 Z M -1.4375 -7.15625 "
           id="path19" />
      </g>
      <g
         id="glyph-3-0-12835ccc">
        <path
           d="M 0 -12.125 L -1.6875 -12.125 L -1.6875 -10.703125 L -8.5 -10.703125 C -11.109375 -10.703125 -12.671875 -8.921875 -12.671875 -5.953125 C -12.671875 -3.71875 -11.5625 -2.234375 -10.25 -1.5625 L -9.171875 -2.71875 C -10.296875 -3.390625 -11.015625 -4.375 -11.015625 -5.859375 C -11.015625 -7.828125 -10.0625 -8.78125 -8.296875 -8.78125 L -7.078125 -8.78125 L -7.078125 -6.34375 C -7.078125 -2.734375 -5.78125 -1.0625 -3.453125 -1.0625 C -1.15625 -1.0625 0.28125 -2.59375 0.28125 -5.203125 C 0.28125 -6.9375 -0.5 -8.25 -2.015625 -8.78125 L -2.015625 -8.90625 C -0.859375 -9.046875 0 -9.625 0 -11.046875 Z M -1.34375 -5.515625 C -1.34375 -4.03125 -2.046875 -3.078125 -3.265625 -3.078125 L -3.765625 -3.078125 C -4.96875 -3.078125 -5.640625 -4.0625 -5.640625 -6.234375 L -5.640625 -8.78125 L -3.59375 -8.78125 C -2.328125 -8.78125 -1.34375 -7.421875 -1.34375 -5.515625 Z M -1.34375 -5.515625 "
           id="path20" />
      </g>
      <g
         id="glyph-3-1-12835ccc">
        <path
           d="M 0.28125 -6.640625 C 0.28125 -9 -0.859375 -10.609375 -2.640625 -11.40625 L -3.578125 -10.015625 C -2.15625 -9.34375 -1.421875 -8.203125 -1.421875 -6.640625 C -1.421875 -4.375 -2.96875 -3.1875 -5.140625 -3.1875 L -7.25 -3.1875 C -9.40625 -3.1875 -10.96875 -4.375 -10.96875 -6.640625 C -10.96875 -8.15625 -10.21875 -9.21875 -8.953125 -9.671875 L -9.765625 -11.28125 C -11.46875 -10.5625 -12.671875 -9.09375 -12.671875 -6.640625 C -12.671875 -3.171875 -10.15625 -1.125 -6.1875 -1.125 C -2.234375 -1.125 0.28125 -3.171875 0.28125 -6.640625 Z M 0.28125 -6.640625 "
           id="path21" />
      </g>
      <g
         id="glyph-3-2-12835ccc">
        <path
           d="M 0 -7.171875 L -1.6875 -7.171875 L -1.6875 -4.65625 L -10.703125 -4.65625 L -10.703125 -7.375 L -12.390625 -7.375 L -12.390625 -4.65625 L -15.8125 -4.65625 L -15.8125 -2.921875 L -13.515625 -2.921875 C -12.671875 -2.921875 -12.390625 -2.65625 -12.390625 -1.84375 L -12.390625 -0.703125 L -10.703125 -0.703125 L -10.703125 -2.734375 L -2.046875 -2.734375 C -0.84375 -2.734375 0 -3.453125 0 -4.78125 Z M 0 -7.171875 "
           id="path22" />
      </g>
      <g
         id="glyph-3-3-12835ccc">
        <path
           d="M 3.625 -1.9375 L -17.765625 -8.203125 L -17.765625 -6.484375 L 3.625 -0.21875 Z M 3.625 -1.9375 "
           id="path23" />
      </g>
      <g
         id="glyph-3-4-12835ccc">
        <path
           d="M 0 -2.234375 L 0 -4.203125 L -14.109375 -4.203125 L -14.109375 -4.3125 L -11.296875 -5.734375 L -4.015625 -9.75 L -11.296875 -13.75 L -14.109375 -15.171875 L -14.109375 -15.28125 L 0 -15.28125 L 0 -17.25 L -16.75 -17.25 L -16.75 -14.65625 L -7.734375 -9.84375 L -7.734375 -9.71875 L -16.75 -4.921875 L -16.75 -2.234375 Z M 0 -2.234375 "
           id="path24" />
      </g>
      <g
         id="glyph-4-0-12835ccc">
        <path
           d="M 0.28125 -5.765625 C 0.28125 -8.59375 -1.171875 -10.34375 -3.578125 -10.34375 C -5.453125 -10.34375 -6.640625 -9.28125 -7.0625 -6.546875 L -7.203125 -5.59375 C -7.4375 -4.0625 -7.921875 -3.21875 -9.125 -3.21875 C -10.296875 -3.21875 -11.046875 -4.0625 -11.046875 -5.640625 C -11.046875 -7.21875 -10.296875 -8.28125 -9.53125 -8.828125 L -10.6875 -10.109375 C -11.921875 -9.09375 -12.671875 -7.78125 -12.671875 -5.78125 C -12.671875 -3.265625 -11.46875 -1.375 -9.03125 -1.375 C -6.71875 -1.375 -5.78125 -3.078125 -5.453125 -5.359375 L -5.296875 -6.34375 C -5.0625 -7.96875 -4.3125 -8.5 -3.359375 -8.5 C -2.09375 -8.5 -1.34375 -7.53125 -1.34375 -5.90625 C -1.34375 -4.34375 -2.046875 -3.1875 -3.234375 -2.234375 L -2.140625 -0.859375 C -0.671875 -1.96875 0.28125 -3.484375 0.28125 -5.765625 Z M 0.28125 -5.765625 "
           id="path25" />
      </g>
      <g
         id="glyph-5-0-12835ccc" />
      <g
         id="glyph-5-1-12835ccc">
        <path
           d="M -3.953125 -6.671875 L -1.9375 -6 L -1.9375 -5.875 L -3.953125 -5.296875 L -12.390625 -2.328125 L -12.390625 -0.40625 L 0.484375 -5.046875 L 3.125 -4.109375 L 3.125 -2.15625 L 4.796875 -2.15625 L 4.796875 -3.140625 C 4.796875 -4.96875 4.375 -5.46875 2.875 -6.03125 L -12.390625 -11.5625 L -12.390625 -9.671875 Z M -3.953125 -6.671875 "
           id="path26" />
      </g>
      <g
         id="glyph-6-0-12835ccc" />
      <g
         id="glyph-7-0-12835ccc">
        <path
           d="M 4.75 0.1875 C 7.40625 0.1875 8.5625 -1.921875 8.5625 -5.53125 C 8.5625 -9.140625 7.40625 -11.25 4.75 -11.25 C 2.109375 -11.25 0.953125 -9.140625 0.953125 -5.53125 C 0.953125 -1.921875 2.109375 0.1875 4.75 0.1875 Z M 4.75 -0.96875 C 3.03125 -0.96875 2.34375 -2.484375 2.34375 -4.625 L 2.34375 -6.4375 C 2.34375 -8.578125 3.03125 -10.09375 4.75 -10.09375 C 6.484375 -10.09375 7.15625 -8.578125 7.15625 -6.4375 L 7.15625 -4.625 C 7.15625 -2.484375 6.484375 -0.96875 4.75 -0.96875 Z M 4.75 -0.96875 "
           id="path27" />
      </g>
      <g
         id="glyph-8-0-12835ccc">
        <path
           d="M 13.125 0 L 13.125 -1.78125 L 8.8125 -1.78125 L 8.8125 -16.75 L 5.65625 -16.75 L 1.21875 -12.59375 L 2.40625 -11.328125 L 6.625 -15.265625 L 6.796875 -15.265625 L 6.796875 -1.78125 L 2.109375 -1.78125 L 2.109375 0 Z M 13.125 0 "
           id="path28" />
      </g>
      <g
         id="glyph-8-1-12835ccc">
        <path
           d="M 7.203125 0.28125 C 11.203125 0.28125 12.953125 -2.90625 12.953125 -8.375 C 12.953125 -13.84375 11.203125 -17.046875 7.203125 -17.046875 C 3.1875 -17.046875 1.4375 -13.84375 1.4375 -8.375 C 1.4375 -2.90625 3.1875 0.28125 7.203125 0.28125 Z M 7.203125 -1.46875 C 4.578125 -1.46875 3.546875 -3.765625 3.546875 -7.015625 L 3.546875 -9.75 C 3.546875 -12.984375 4.578125 -15.28125 7.203125 -15.28125 C 9.8125 -15.28125 10.84375 -12.984375 10.84375 -9.75 L 10.84375 -7.015625 C 10.84375 -3.765625 9.8125 -1.46875 7.203125 -1.46875 Z M 7.203125 -1.46875 "
           id="path29" />
      </g>
      <g
         id="glyph-9-0-12835ccc">
        <path
           d="M 8.671875 0 L 8.671875 -1.171875 L 5.8125 -1.171875 L 5.8125 -11.0625 L 3.734375 -11.0625 L 0.8125 -8.3125 L 1.578125 -7.484375 L 4.375 -10.078125 L 4.484375 -10.078125 L 4.484375 -1.171875 L 1.390625 -1.171875 L 1.390625 0 Z M 8.671875 0 "
           id="path30" />
      </g>
      <g
         id="glyph-10-0-12835ccc">
        <path
           d="M 8.4375 -1.171875 L 2.625 -1.171875 L 5.609375 -3.84375 C 7.015625 -5.125 8.03125 -6.328125 8.03125 -8.03125 C 8.03125 -9.921875 6.796875 -11.25 4.640625 -11.25 C 2.5 -11.25 1.515625 -9.953125 1.09375 -8.65625 L 2.28125 -8.1875 C 2.578125 -9.234375 3.21875 -10.0625 4.578125 -10.0625 C 5.9375 -10.0625 6.625 -9.21875 6.625 -8 L 6.625 -7.8125 C 6.625 -6.75 5.828125 -5.640625 4.796875 -4.6875 L 1.1875 -1.359375 L 1.1875 0 L 8.4375 0 Z M 8.4375 -1.171875 "
           id="path31" />
      </g>
      <g
         id="glyph-10-1-12835ccc">
        <path
           d="M 2.9375 -6.375 L 2.9375 -5.21875 L 4.234375 -5.21875 C 5.78125 -5.21875 6.609375 -4.46875 6.609375 -3.171875 L 6.609375 -3.046875 C 6.609375 -1.75 5.78125 -1 4.234375 -1 C 2.890625 -1 2.234375 -1.578125 1.65625 -2.453125 L 0.671875 -1.6875 C 1.34375 -0.75 2.328125 0.1875 4.25 0.1875 C 6.5 0.1875 8 -1.125 8 -3.03125 C 8 -4.6875 6.859375 -5.578125 5.671875 -5.8125 L 5.671875 -5.875 C 6.84375 -6.171875 7.796875 -7.03125 7.796875 -8.453125 C 7.796875 -10.25 6.3125 -11.25 4.4375 -11.25 C 2.65625 -11.25 1.6875 -10.328125 1.140625 -9.4375 L 2.125 -8.6875 C 2.578125 -9.515625 3.265625 -10.0625 4.40625 -10.0625 C 5.578125 -10.0625 6.390625 -9.46875 6.390625 -8.3125 L 6.390625 -8.203125 C 6.390625 -7.140625 5.625 -6.375 4.140625 -6.375 Z M 2.9375 -6.375 "
           id="path32" />
      </g>
      <g
         id="glyph-11-0-12835ccc">
        <path
           d="M 4.3125 0.21875 C 6.4375 0.21875 7.765625 -0.875 7.765625 -2.6875 C 7.765625 -4.09375 6.96875 -4.984375 4.90625 -5.296875 L 4.1875 -5.40625 C 3.046875 -5.578125 2.40625 -5.9375 2.40625 -6.84375 C 2.40625 -7.71875 3.046875 -8.28125 4.234375 -8.28125 C 5.421875 -8.28125 6.203125 -7.71875 6.625 -7.140625 L 7.578125 -8.015625 C 6.828125 -8.953125 5.828125 -9.5 4.34375 -9.5 C 2.453125 -9.5 1.03125 -8.609375 1.03125 -6.765625 C 1.03125 -5.046875 2.296875 -4.34375 4.015625 -4.09375 L 4.75 -3.984375 C 5.96875 -3.796875 6.375 -3.234375 6.375 -2.515625 C 6.375 -1.5625 5.65625 -1.015625 4.421875 -1.015625 C 3.265625 -1.015625 2.390625 -1.53125 1.671875 -2.4375 L 0.640625 -1.609375 C 1.46875 -0.5 2.609375 0.21875 4.3125 0.21875 Z M 4.3125 0.21875 "
           id="path33" />
      </g>
      <g
         id="glyph-11-1-12835ccc">
        <path
           d="M 4.34375 0 L 4.34375 -1.265625 L 2.96875 -1.265625 L 2.96875 -13.3125 L 1.53125 -13.3125 L 1.53125 -1.5 C 1.53125 -0.625 2.0625 0 3.0625 0 Z M 4.34375 0 "
           id="path34" />
      </g>
      <g
         id="glyph-11-2-12835ccc">
        <path
           d="M 9.09375 0 L 9.09375 -1.265625 L 8.03125 -1.265625 L 8.03125 -6.375 C 8.03125 -8.328125 6.703125 -9.5 4.46875 -9.5 C 2.796875 -9.5 1.671875 -8.671875 1.171875 -7.6875 L 2.03125 -6.875 C 2.53125 -7.71875 3.28125 -8.265625 4.390625 -8.265625 C 5.875 -8.265625 6.59375 -7.546875 6.59375 -6.234375 L 6.59375 -5.3125 L 4.75 -5.3125 C 2.046875 -5.3125 0.796875 -4.34375 0.796875 -2.59375 C 0.796875 -0.859375 1.9375 0.21875 3.90625 0.21875 C 5.203125 0.21875 6.1875 -0.375 6.59375 -1.515625 L 6.671875 -1.515625 C 6.78125 -0.640625 7.21875 0 8.28125 0 Z M 4.140625 -1.015625 C 3.03125 -1.015625 2.296875 -1.53125 2.296875 -2.453125 L 2.296875 -2.828125 C 2.296875 -3.71875 3.046875 -4.234375 4.6875 -4.234375 L 6.59375 -4.234375 L 6.59375 -2.703125 C 6.59375 -1.75 5.5625 -1.015625 4.140625 -1.015625 Z M 4.140625 -1.015625 "
           id="path35" />
      </g>
      <g
         id="glyph-11-3-12835ccc">
        <path
           d="M 2.96875 0 L 2.96875 -6.296875 C 2.96875 -7.1875 3.90625 -7.84375 5.453125 -7.84375 L 6.296875 -7.84375 L 6.296875 -9.28125 L 5.734375 -9.28125 C 4.234375 -9.28125 3.390625 -8.453125 3.0625 -7.578125 L 2.96875 -7.578125 L 2.96875 -9.28125 L 1.53125 -9.28125 L 1.53125 0 Z M 2.96875 0 "
           id="path36" />
      </g>
      <g
         id="glyph-11-4-12835ccc" />
      <g
         id="glyph-11-5-12835ccc">
        <path
           d="M 9.359375 1.03125 C 9.359375 -0.5 8.375 -1.4375 6.0625 -1.4375 L 4.09375 -1.4375 C 3.234375 -1.4375 2.65625 -1.578125 2.65625 -2.140625 C 2.65625 -2.71875 3.28125 -3.03125 3.890625 -3.1875 C 4.15625 -3.125 4.484375 -3.09375 4.78125 -3.09375 C 6.90625 -3.09375 8.296875 -4.40625 8.296875 -6.296875 C 8.296875 -7.296875 7.90625 -8.125 7.234375 -8.6875 L 7.234375 -9.28125 L 9 -9.28125 L 9 -10.546875 L 7.609375 -10.546875 C 6.84375 -10.546875 6.53125 -10.03125 6.53125 -9.3125 L 6.53125 -9.140625 C 6.03125 -9.375 5.4375 -9.5 4.765625 -9.5 C 2.65625 -9.5 1.28125 -8.1875 1.28125 -6.296875 C 1.28125 -5 1.921875 -3.984375 3.03125 -3.453125 L 3.03125 -3.390625 C 2.09375 -3.15625 1.421875 -2.703125 1.421875 -1.765625 C 1.421875 -1.140625 1.734375 -0.71875 2.25 -0.46875 L 2.25 -0.265625 C 1.328125 -0.015625 0.78125 0.515625 0.78125 1.53125 C 0.78125 2.984375 1.96875 3.8125 4.859375 3.8125 C 7.84375 3.8125 9.359375 2.9375 9.359375 1.03125 Z M 8.015625 1.140625 C 8.015625 2.140625 7.078125 2.640625 5.46875 2.640625 L 4.140625 2.640625 C 2.6875 2.640625 2.125 1.984375 2.125 1.171875 C 2.125 0.59375 2.390625 0.1875 2.984375 -0.09375 L 6.078125 -0.09375 C 7.53125 -0.09375 8.015625 0.390625 8.015625 1.140625 Z M 4.78125 -4.25 C 3.5625 -4.25 2.796875 -4.828125 2.796875 -6.046875 L 2.796875 -6.546875 C 2.796875 -7.78125 3.5625 -8.359375 4.78125 -8.359375 C 6.015625 -8.359375 6.78125 -7.78125 6.78125 -6.546875 L 6.78125 -6.046875 C 6.78125 -4.828125 6.015625 -4.25 4.78125 -4.25 Z M 4.78125 -4.25 "
           id="path37" />
      </g>
      <g
         id="glyph-11-6-12835ccc">
        <path
           d="M 5.015625 0.21875 C 6.765625 0.21875 8.09375 -0.640625 8.6875 -1.90625 L 7.671875 -2.640625 C 7.1875 -1.625 6.28125 -1.046875 5.109375 -1.046875 C 3.390625 -1.046875 2.359375 -2.25 2.359375 -3.859375 L 2.359375 -4.28125 L 9.03125 -4.28125 L 9.03125 -4.96875 C 9.03125 -7.59375 7.5 -9.5 5.015625 -9.5 C 2.5 -9.5 0.84375 -7.59375 0.84375 -4.640625 C 0.84375 -1.6875 2.5 0.21875 5.015625 0.21875 Z M 5.015625 -8.296875 C 6.5 -8.296875 7.484375 -7.203125 7.484375 -5.5625 L 7.484375 -5.359375 L 2.359375 -5.359375 L 2.359375 -5.484375 C 2.359375 -7.109375 3.453125 -8.296875 5.015625 -8.296875 Z M 5.015625 -8.296875 "
           id="path38" />
      </g>
      <g
         id="glyph-12-0-12835ccc">
        <path
           d="M 5.046875 0.21875 C 7.53125 0.21875 9.234375 -1.6875 9.234375 -4.640625 C 9.234375 -7.59375 7.53125 -9.5 5.046875 -9.5 C 2.5625 -9.5 0.84375 -7.59375 0.84375 -4.640625 C 0.84375 -1.6875 2.5625 0.21875 5.046875 0.21875 Z M 5.046875 -1.0625 C 3.484375 -1.0625 2.390625 -2.015625 2.390625 -3.984375 L 2.390625 -5.3125 C 2.390625 -7.265625 3.484375 -8.21875 5.046875 -8.21875 C 6.59375 -8.21875 7.6875 -7.265625 7.6875 -5.3125 L 7.6875 -3.984375 C 7.6875 -2.015625 6.59375 -1.0625 5.046875 -1.0625 Z M 5.046875 -1.0625 "
           id="path39" />
      </g>
      <g
         id="glyph-13-0-12835ccc">
        <path
           d="M 2.046875 4.796875 L 3.953125 4.796875 L 3.953125 -2.015625 L 4.0625 -2.015625 C 4.796875 -0.484375 5.96875 0.28125 7.6875 0.28125 C 10.78125 0.28125 12.71875 -2.234375 12.71875 -6.1875 C 12.71875 -10.15625 10.78125 -12.671875 7.6875 -12.671875 C 5.96875 -12.671875 4.703125 -11.921875 4.0625 -10.375 L 3.953125 -10.375 L 3.953125 -12.390625 L 2.046875 -12.390625 Z M 7.15625 -1.4375 C 5.40625 -1.4375 3.953125 -2.359375 3.953125 -3.953125 L 3.953125 -8.5625 C 3.953125 -9.9375 5.40625 -10.9375 7.15625 -10.9375 C 9.3125 -10.9375 10.65625 -9.453125 10.65625 -7.25 L 10.65625 -5.140625 C 10.65625 -2.921875 9.3125 -1.4375 7.15625 -1.4375 Z M 7.15625 -1.4375 "
           id="path40" />
      </g>
      <g
         id="glyph-13-1-12835ccc">
        <path
           d="M 6.71875 0.28125 C 10.03125 0.28125 12.3125 -2.25 12.3125 -6.1875 C 12.3125 -10.125 10.03125 -12.671875 6.71875 -12.671875 C 3.40625 -12.671875 1.125 -10.125 1.125 -6.1875 C 1.125 -2.25 3.40625 0.28125 6.71875 0.28125 Z M 6.71875 -1.421875 C 4.65625 -1.421875 3.1875 -2.6875 3.1875 -5.296875 L 3.1875 -7.078125 C 3.1875 -9.703125 4.65625 -10.96875 6.71875 -10.96875 C 8.78125 -10.96875 10.25 -9.703125 10.25 -7.078125 L 10.25 -5.296875 C 10.25 -2.6875 8.78125 -1.421875 6.71875 -1.421875 Z M 6.71875 -1.421875 "
           id="path41" />
      </g>
      <g
         id="glyph-13-2-12835ccc">
        <path
           d="M 5.765625 0.28125 C 8.59375 0.28125 10.34375 -1.171875 10.34375 -3.578125 C 10.34375 -5.453125 9.28125 -6.640625 6.546875 -7.0625 L 5.59375 -7.203125 C 4.0625 -7.4375 3.21875 -7.921875 3.21875 -9.125 C 3.21875 -10.296875 4.0625 -11.046875 5.640625 -11.046875 C 7.21875 -11.046875 8.28125 -10.296875 8.828125 -9.53125 L 10.109375 -10.6875 C 9.09375 -11.921875 7.78125 -12.671875 5.78125 -12.671875 C 3.265625 -12.671875 1.375 -11.46875 1.375 -9.03125 C 1.375 -6.71875 3.078125 -5.78125 5.359375 -5.453125 L 6.34375 -5.296875 C 7.96875 -5.0625 8.5 -4.3125 8.5 -3.359375 C 8.5 -2.09375 7.53125 -1.34375 5.90625 -1.34375 C 4.34375 -1.34375 3.1875 -2.046875 2.234375 -3.234375 L 0.859375 -2.140625 C 1.96875 -0.671875 3.484375 0.28125 5.765625 0.28125 Z M 5.765625 0.28125 "
           id="path42" />
      </g>
      <g
         id="glyph-13-3-12835ccc">
        <path
           d="M 7.171875 0 L 7.171875 -1.6875 L 4.65625 -1.6875 L 4.65625 -10.703125 L 7.375 -10.703125 L 7.375 -12.390625 L 4.65625 -12.390625 L 4.65625 -15.8125 L 2.921875 -15.8125 L 2.921875 -13.515625 C 2.921875 -12.671875 2.65625 -12.390625 1.84375 -12.390625 L 0.703125 -12.390625 L 0.703125 -10.703125 L 2.734375 -10.703125 L 2.734375 -2.046875 C 2.734375 -0.84375 3.453125 0 4.78125 0 Z M 7.171875 0 "
           id="path43" />
      </g>
      <g
         id="glyph-13-4-12835ccc">
        <path
           d="M 7.921875 -6.265625 L 7.921875 -8.328125 L 1.65625 -8.328125 L 1.65625 -6.265625 Z M 7.921875 -6.265625 "
           id="path44" />
      </g>
      <g
         id="glyph-13-5-12835ccc">
        <path
           d="M 12.125 0 L 12.125 -1.6875 L 10.703125 -1.6875 L 10.703125 -8.5 C 10.703125 -11.109375 8.921875 -12.671875 5.953125 -12.671875 C 3.71875 -12.671875 2.234375 -11.5625 1.5625 -10.25 L 2.71875 -9.171875 C 3.390625 -10.296875 4.375 -11.015625 5.859375 -11.015625 C 7.828125 -11.015625 8.78125 -10.0625 8.78125 -8.296875 L 8.78125 -7.078125 L 6.34375 -7.078125 C 2.734375 -7.078125 1.0625 -5.78125 1.0625 -3.453125 C 1.0625 -1.15625 2.59375 0.28125 5.203125 0.28125 C 6.9375 0.28125 8.25 -0.5 8.78125 -2.015625 L 8.90625 -2.015625 C 9.046875 -0.859375 9.625 0 11.046875 0 Z M 5.515625 -1.34375 C 4.03125 -1.34375 3.078125 -2.046875 3.078125 -3.265625 L 3.078125 -3.765625 C 3.078125 -4.96875 4.0625 -5.640625 6.234375 -5.640625 L 8.78125 -5.640625 L 8.78125 -3.59375 C 8.78125 -2.328125 7.421875 -1.34375 5.515625 -1.34375 Z M 5.515625 -1.34375 "
           id="path45" />
      </g>
      <g
         id="glyph-13-6-12835ccc">
        <path
           d="M 6.640625 0.28125 C 9 0.28125 10.609375 -0.859375 11.40625 -2.640625 L 10.015625 -3.578125 C 9.34375 -2.15625 8.203125 -1.421875 6.640625 -1.421875 C 4.375 -1.421875 3.1875 -2.96875 3.1875 -5.140625 L 3.1875 -7.25 C 3.1875 -9.40625 4.375 -10.96875 6.640625 -10.96875 C 8.15625 -10.96875 9.21875 -10.21875 9.671875 -8.953125 L 11.28125 -9.765625 C 10.5625 -11.46875 9.09375 -12.671875 6.640625 -12.671875 C 3.171875 -12.671875 1.125 -10.15625 1.125 -6.1875 C 1.125 -2.234375 3.171875 0.28125 6.640625 0.28125 Z M 6.640625 0.28125 "
           id="path46" />
      </g>
      <g
         id="glyph-13-7-12835ccc">
        <path
           d="M 3 -15.28125 C 3.8125 -15.28125 4.171875 -15.71875 4.171875 -16.375 L 4.171875 -16.6875 C 4.171875 -17.328125 3.8125 -17.765625 3 -17.765625 C 2.1875 -17.765625 1.828125 -17.328125 1.828125 -16.6875 L 1.828125 -16.375 C 1.828125 -15.71875 2.1875 -15.28125 3 -15.28125 Z M 2.046875 0 L 3.953125 0 L 3.953125 -12.390625 L 2.046875 -12.390625 Z M 2.046875 0 "
           id="path47" />
      </g>
      <g
         id="glyph-13-8-12835ccc">
        <path
           d="M 3.953125 0 L 3.953125 -8.59375 C 3.953125 -10.171875 5.453125 -10.9375 6.984375 -10.9375 C 8.828125 -10.9375 9.796875 -9.8125 9.796875 -7.609375 L 9.796875 0 L 11.71875 0 L 11.71875 -7.9375 C 11.71875 -10.9375 10.109375 -12.671875 7.5625 -12.671875 C 5.71875 -12.671875 4.65625 -11.765625 4.0625 -10.375 L 3.953125 -10.375 L 3.953125 -12.390625 L 2.046875 -12.390625 L 2.046875 0 Z M 3.953125 0 "
           id="path48" />
      </g>
      <g
         id="glyph-13-9-12835ccc">
        <path
           d="M 3.953125 0 L 3.953125 -8.40625 C 3.953125 -9.578125 5.203125 -10.46875 7.265625 -10.46875 L 8.40625 -10.46875 L 8.40625 -12.390625 L 7.65625 -12.390625 C 5.640625 -12.390625 4.515625 -11.28125 4.078125 -10.109375 L 3.953125 -10.109375 L 3.953125 -12.390625 L 2.046875 -12.390625 L 2.046875 0 Z M 3.953125 0 "
           id="path49" />
      </g>
      <g
         id="glyph-13-10-12835ccc">
        <path
           d="M 3.953125 0 L 3.953125 -8.59375 C 3.953125 -10.171875 5.40625 -10.9375 6.90625 -10.9375 C 8.734375 -10.9375 9.578125 -9.8125 9.578125 -7.609375 L 9.578125 0 L 11.5 0 L 11.5 -8.59375 C 11.5 -10.171875 12.890625 -10.9375 14.40625 -10.9375 C 16.265625 -10.9375 17.109375 -9.796875 17.109375 -7.609375 L 17.109375 0 L 19.03125 0 L 19.03125 -7.9375 C 19.03125 -10.9375 17.515625 -12.671875 15 -12.671875 C 12.890625 -12.671875 11.6875 -11.5 11.234375 -10.15625 L 11.1875 -10.15625 C 10.515625 -11.921875 9.03125 -12.671875 7.390625 -12.671875 C 5.46875 -12.671875 4.609375 -11.640625 4.0625 -10.375 L 3.953125 -10.375 L 3.953125 -12.390625 L 2.046875 -12.390625 L 2.046875 0 Z M 3.953125 0 "
           id="path50" />
      </g>
      <g
         id="glyph-13-11-12835ccc">
        <path
           d="M 9.953125 0 L 11.875 0 L 11.875 -17.765625 L 9.953125 -17.765625 L 9.953125 -10.375 L 9.859375 -10.375 C 9.21875 -11.921875 7.9375 -12.671875 6.234375 -12.671875 C 3.140625 -12.671875 1.203125 -10.15625 1.203125 -6.1875 C 1.203125 -2.234375 3.140625 0.28125 6.234375 0.28125 C 7.9375 0.28125 9.125 -0.484375 9.859375 -2.015625 L 9.953125 -2.015625 Z M 6.765625 -1.4375 C 4.609375 -1.4375 3.265625 -2.921875 3.265625 -5.140625 L 3.265625 -7.25 C 3.265625 -9.453125 4.609375 -10.9375 6.765625 -10.9375 C 8.515625 -10.9375 9.953125 -9.9375 9.953125 -8.5625 L 9.953125 -3.953125 C 9.953125 -2.359375 8.515625 -1.4375 6.765625 -1.4375 Z M 6.765625 -1.4375 "
           id="path51" />
      </g>
      <g
         id="glyph-13-12-12835ccc">
        <path
           d="M 5.78125 0 L 5.78125 -1.6875 L 3.953125 -1.6875 L 3.953125 -17.765625 L 2.046875 -17.765625 L 2.046875 -1.984375 C 2.046875 -0.84375 2.765625 0 4.078125 0 Z M 5.78125 0 "
           id="path52" />
      </g>
      <g
         id="glyph-14-0-12835ccc">
        <path
           d="M 3.953125 0 L 3.953125 -8.40625 C 3.953125 -9.578125 5.203125 -10.46875 7.265625 -10.46875 L 8.40625 -10.46875 L 8.40625 -12.390625 L 7.65625 -12.390625 C 5.640625 -12.390625 4.515625 -11.28125 4.078125 -10.109375 L 3.953125 -10.109375 L 3.953125 -12.390625 L 2.046875 -12.390625 L 2.046875 0 Z M 3.953125 0 "
           id="path53" />
      </g>
      <g
         id="glyph-15-0-12835ccc">
        <path
           d="M 6.703125 0.28125 C 9.03125 0.28125 10.796875 -0.859375 11.59375 -2.546875 L 10.21875 -3.53125 C 9.578125 -2.15625 8.375 -1.390625 6.8125 -1.390625 C 4.515625 -1.390625 3.140625 -3 3.140625 -5.140625 L 3.140625 -5.71875 L 12.046875 -5.71875 L 12.046875 -6.625 C 12.046875 -10.125 10.015625 -12.671875 6.703125 -12.671875 C 3.34375 -12.671875 1.125 -10.125 1.125 -6.1875 C 1.125 -2.25 3.34375 0.28125 6.703125 0.28125 Z M 6.703125 -11.0625 C 8.65625 -11.0625 9.984375 -9.59375 9.984375 -7.421875 L 9.984375 -7.15625 L 3.140625 -7.15625 L 3.140625 -7.3125 C 3.140625 -9.484375 4.609375 -11.0625 6.703125 -11.0625 Z M 6.703125 -11.0625 "
           id="path54" />
      </g>
      <g
         id="glyph-16-0-12835ccc">
        <path
           d="M 7.25 -7.328125 L 7.25 -6.1875 C 6.863281 -6.363281 6.460938 -6.492188 6.046875 -6.578125 C 5.640625 -6.660156 5.210938 -6.703125 4.765625 -6.703125 C 4.085938 -6.703125 3.582031 -6.613281 3.25 -6.4375 C 2.914062 -6.25 2.75 -5.972656 2.75 -5.609375 C 2.75 -5.328125 2.867188 -5.109375 3.109375 -4.953125 C 3.347656 -4.785156 3.832031 -4.628906 4.5625 -4.484375 L 5.03125 -4.390625 C 6.007812 -4.203125 6.691406 -3.945312 7.078125 -3.625 C 7.484375 -3.289062 7.6875 -2.820312 7.6875 -2.21875 C 7.6875 -1.539062 7.382812 -1 6.78125 -0.59375 C 6.175781 -0.195312 5.34375 0 4.28125 0 C 3.832031 0 3.367188 -0.0390625 2.890625 -0.125 C 2.410156 -0.195312 1.90625 -0.304688 1.375 -0.453125 L 1.375 -1.71875 C 1.875 -1.476562 2.367188 -1.300781 2.859375 -1.1875 C 3.347656 -1.070312 3.828125 -1.015625 4.296875 -1.015625 C 4.941406 -1.015625 5.4375 -1.109375 5.78125 -1.296875 C 6.125 -1.492188 6.296875 -1.769531 6.296875 -2.125 C 6.296875 -2.445312 6.171875 -2.703125 5.921875 -2.890625 C 5.703125 -3.046875 5.160156 -3.210938 4.296875 -3.390625 L 3.828125 -3.484375 C 2.984375 -3.648438 2.375 -3.890625 2 -4.203125 C 1.625 -4.535156 1.4375 -4.988281 1.4375 -5.5625 C 1.4375 -6.25 1.710938 -6.78125 2.265625 -7.15625 C 2.804688 -7.53125 3.585938 -7.71875 4.609375 -7.71875 C 5.109375 -7.71875 5.582031 -7.6875 6.03125 -7.625 C 6.46875 -7.5625 6.875 -7.460938 7.25 -7.328125 Z M 7.25 -7.328125 "
           id="path55" />
      </g>
    </g>
    <clipPath
       id="clip-0-12835ccc">
      <path
         clip-rule="nonzero"
         d="M 139 278 L 584 278 L 584 315 L 139 315 Z M 139 278 "
         id="path56" />
    </clipPath>
    <clipPath
       id="clip-1-12835ccc">
      <path
         clip-rule="nonzero"
         d="M 158 93 L 508 93 L 508 362 L 158 362 Z M 158 93 "
         id="path57" />
    </clipPath>
    <clipPath
       id="clip-2-12835ccc">
      <path
         clip-rule="nonzero"
         d="M 147 88 L 150 88 L 150 362 L 147 362 Z M 147 88 "
         id="path58" />
    </clipPath>
  </defs>
  <g
     fill="rgb(100%, 100%, 100%)"
     fill-opacity="1"
     id="g65">
    <use
       xlink:href="#glyph-0-0-12835ccc"
       x="299.860004"
       y="429.799995"
       id="use58" />
    <use
       xlink:href="#glyph-0-1-12835ccc"
       x="315.244003"
       y="429.799995"
       id="use59" />
    <use
       xlink:href="#glyph-0-2-12835ccc"
       x="327.916004"
       y="429.799995"
       id="use60" />
    <use
       xlink:href="#glyph-0-3-12835ccc"
       x="341.092007"
       y="429.799995"
       id="use61" />
    <use
       xlink:href="#glyph-0-4-12835ccc"
       x="346.756009"
       y="429.799995"
       id="use62" />
    <use
       xlink:href="#glyph-0-5-12835ccc"
       x="354.79601"
       y="429.799995"
       id="use63" />
    <use
       xlink:href="#glyph-0-6-12835ccc"
       x="374.284009"
       y="429.799995"
       id="use64" />
    <use
       xlink:href="#glyph-0-7-12835ccc"
       x="387.100012"
       y="429.799995"
       id="use65" />
  </g>
  <g
     fill="rgb(100%, 100%, 100%)"
     fill-opacity="1"
     id="g69">
    <use
       xlink:href="#glyph-0-8-12835ccc"
       x="229.50103"
       y="395.599997"
       id="use66" />
    <use
       xlink:href="#glyph-0-9-12835ccc"
       x="243.901031"
       y="395.599997"
       id="use67" />
    <use
       xlink:href="#glyph-0-10-12835ccc"
       x="258.301032"
       y="395.599997"
       id="use68" />
    <use
       xlink:href="#glyph-0-10-12835ccc"
       x="272.701032"
       y="395.599997"
       id="use69" />
  </g>
  <g
     fill="rgb(100%, 100%, 100%)"
     fill-opacity="1"
     id="g73">
    <use
       xlink:href="#glyph-0-8-12835ccc"
       x="393.16888"
       y="395.599997"
       id="use70" />
    <use
       xlink:href="#glyph-0-8-12835ccc"
       x="407.568881"
       y="395.599997"
       id="use71" />
    <use
       xlink:href="#glyph-0-10-12835ccc"
       x="421.968882"
       y="395.599997"
       id="use72" />
    <use
       xlink:href="#glyph-0-10-12835ccc"
       x="436.368882"
       y="395.599997"
       id="use73" />
  </g>
  <g
     fill="rgb(100%, 100%, 100%)"
     fill-opacity="1"
     id="g74">
    <use
       xlink:href="#glyph-1-0-12835ccc"
       x="38.511996"
       y="295.727993"
       id="use74" />
  </g>
  <g
     fill="rgb(100%, 100%, 100%)"
     fill-opacity="1"
     id="g76">
    <use
       xlink:href="#glyph-2-0-12835ccc"
       x="38.511997"
       y="286.127998"
       id="use75" />
    <use
       xlink:href="#glyph-2-1-12835ccc"
       x="38.511998"
       y="265.175994"
       id="use76" />
  </g>
  <g
     fill="rgb(100%, 100%, 100%)"
     fill-opacity="1"
     id="g79">
    <use
       xlink:href="#glyph-3-0-12835ccc"
       x="38.511999"
       y="251.255998"
       id="use77" />
    <use
       xlink:href="#glyph-3-1-12835ccc"
       x="38.512"
       y="238.439996"
       id="use78" />
    <use
       xlink:href="#glyph-3-2-12835ccc"
       x="38.512001"
       y="226.367998"
       id="use79" />
  </g>
  <g
     fill="rgb(100%, 100%, 100%)"
     fill-opacity="1"
     id="g80">
    <use
       xlink:href="#glyph-4-0-12835ccc"
       x="38.512001"
       y="217.944002"
       id="use80" />
  </g>
  <g
     fill="rgb(100%, 100%, 100%)"
     fill-opacity="1"
     id="g81">
    <use
       xlink:href="#glyph-5-0-12835ccc"
       x="38.512001"
       y="206.256"
       id="use81" />
  </g>
  <g
     fill="rgb(100%, 100%, 100%)"
     fill-opacity="1"
     id="g82">
    <use
       xlink:href="#glyph-3-3-12835ccc"
       x="38.512002"
       y="200.591999"
       id="use82" />
  </g>
  <g
     fill="rgb(100%, 100%, 100%)"
     fill-opacity="1"
     id="g83">
    <use
       xlink:href="#glyph-6-0-12835ccc"
       x="38.512002"
       y="191.399999"
       id="use83" />
  </g>
  <g
     fill="rgb(100%, 100%, 100%)"
     fill-opacity="1"
     id="g84">
    <use
       xlink:href="#glyph-3-4-12835ccc"
       x="38.512003"
       y="185.735997"
       id="use84" />
  </g>
  <g
     fill="rgb(100%, 100%, 100%)"
     fill-opacity="1"
     id="g85">
    <use
       xlink:href="#glyph-5-1-12835ccc"
       x="38.512004"
       y="166.24799"
       id="use85" />
  </g>
  <g
     fill="rgb(100%, 100%, 100%)"
     fill-opacity="1"
     id="g87">
    <use
       xlink:href="#glyph-0-11-12835ccc"
       x="60.112001"
       y="312.403733"
       id="use86" />
    <use
       xlink:href="#glyph-0-10-12835ccc"
       x="74.512003"
       y="312.403733"
       id="use87" />
  </g>
  <g
     fill="rgb(100%, 100%, 100%)"
     fill-opacity="1"
     id="g88">
    <use
       xlink:href="#glyph-7-0-12835ccc"
       x="90.496002"
       y="302.803732"
       id="use88" />
  </g>
  <g
     fill="rgb(100%, 100%, 100%)"
     fill-opacity="1"
     id="g90">
    <use
       xlink:href="#glyph-8-0-12835ccc"
       x="60.112001"
       y="250.632598"
       id="use89" />
    <use
       xlink:href="#glyph-8-1-12835ccc"
       x="74.512003"
       y="250.632598"
       id="use90" />
  </g>
  <g
     fill="rgb(100%, 100%, 100%)"
     fill-opacity="1"
     id="g91">
    <use
       xlink:href="#glyph-9-0-12835ccc"
       x="90.496002"
       y="241.032597"
       id="use91" />
  </g>
  <g
     fill="rgb(100%, 100%, 100%)"
     fill-opacity="1"
     id="g93">
    <use
       xlink:href="#glyph-0-11-12835ccc"
       x="60.112001"
       y="188.861463"
       id="use92" />
    <use
       xlink:href="#glyph-0-10-12835ccc"
       x="74.512003"
       y="188.861463"
       id="use93" />
  </g>
  <g
     fill="rgb(100%, 100%, 100%)"
     fill-opacity="1"
     id="g94">
    <use
       xlink:href="#glyph-10-0-12835ccc"
       x="90.496002"
       y="179.261462"
       id="use94" />
  </g>
  <g
     fill="rgb(100%, 100%, 100%)"
     fill-opacity="1"
     id="g96">
    <use
       xlink:href="#glyph-0-11-12835ccc"
       x="60.112001"
       y="127.090313"
       id="use95" />
    <use
       xlink:href="#glyph-0-10-12835ccc"
       x="74.512003"
       y="127.090313"
       id="use96" />
  </g>
  <g
     fill="rgb(100%, 100%, 100%)"
     fill-opacity="1"
     id="g97">
    <use
       xlink:href="#glyph-10-1-12835ccc"
       x="90.496002"
       y="117.490312"
       id="use97" />
  </g>
  <g
     clip-path="url(#clip-0-12835ccc)"
     id="g98">
    <path
       fill="none"
       stroke-width="3"
       stroke-linecap="butt"
       stroke-linejoin="miter"
       stroke="rgb(68.235296%, 93.333334%, 93.333334%)"
       stroke-opacity="1"
       stroke-miterlimit="2"
       d="M 148.152344 286.722656 L 151.425781 286.863281 L 153.0625 286.9375 L 154.699219 287.007812 L 156.335938 287.082031 L 159.609375 287.222656 L 161.246094 287.296875 L 162.882812 287.367188 L 164.519531 287.441406 L 167.792969 287.582031 L 169.429688 287.65625 L 171.066406 287.726562 L 172.703125 287.800781 L 174.339844 287.871094 L 175.976562 287.945312 L 179.25 288.085938 L 180.886719 288.160156 L 182.523438 288.230469 L 184.160156 288.304688 L 187.433594 288.445312 L 189.070312 288.519531 L 190.707031 288.589844 L 192.34375 288.664062 L 195.617188 288.804688 L 197.253906 288.878906 L 198.890625 288.949219 L 200.527344 289.023438 L 202.164062 289.09375 L 203.800781 289.167969 L 207.074219 289.308594 L 208.710938 289.382812 L 210.347656 289.453125 L 211.984375 289.527344 L 215.257812 289.667969 L 216.894531 289.742188 L 218.53125 289.8125 L 220.167969 289.886719 L 223.441406 290.027344 L 225.078125 290.101562 L 226.714844 290.171875 L 228.351562 290.246094 L 229.988281 290.316406 L 231.625 290.390625 L 234.898438 290.53125 L 236.535156 290.605469 L 238.171875 290.675781 L 239.804688 290.75 L 243.078125 290.890625 L 244.714844 290.964844 L 246.351562 291.035156 L 247.988281 291.109375 L 251.261719 291.25 L 252.898438 291.324219 L 254.535156 291.394531 L 256.171875 291.46875 L 257.808594 291.539062 L 259.445312 291.613281 L 262.71875 291.753906 L 264.355469 291.828125 L 265.992188 291.898438 L 267.628906 291.972656 L 270.902344 292.113281 L 272.539062 292.1875 L 274.175781 292.257812 L 275.8125 292.332031 L 279.085938 292.472656 L 280.722656 292.546875 L 282.359375 292.617188 L 283.996094 292.691406 L 285.632812 292.761719 L 287.269531 292.835938 L 290.542969 292.976562 L 292.179688 293.050781 L 293.816406 293.121094 L 295.453125 293.195312 L 298.726562 293.335938 L 300.363281 293.410156 L 302 293.480469 L 303.636719 293.554688 L 306.910156 293.695312 L 308.546875 293.769531 L 310.183594 293.839844 L 311.820312 293.914062 L 313.457031 293.984375 L 315.09375 294.058594 L 318.367188 294.199219 L 320.003906 294.273438 L 321.640625 294.34375 L 323.277344 294.417969 L 326.550781 294.558594 L 328.1875 294.632812 L 329.824219 294.703125 L 331.460938 294.777344 L 333.097656 294.847656 L 334.734375 294.921875 L 338.007812 295.0625 L 339.644531 295.136719 L 341.28125 295.207031 L 342.917969 295.28125 L 346.191406 295.421875 L 347.828125 295.496094 L 349.464844 295.566406 L 351.101562 295.640625 L 354.375 295.78125 L 356.011719 295.855469 L 357.648438 295.925781 L 359.285156 296 L 360.921875 296.070312 L 362.558594 296.144531 L 365.832031 296.285156 L 367.46875 296.359375 L 369.105469 296.429688 L 370.742188 296.503906 L 374.015625 296.644531 L 375.652344 296.71875 L 377.289062 296.789062 L 378.925781 296.863281 L 382.199219 297.003906 L 383.835938 297.078125 L 385.472656 297.148438 L 387.109375 297.222656 L 388.746094 297.292969 L 390.382812 297.367188 L 393.65625 297.507812 L 395.292969 297.582031 L 396.929688 297.652344 L 398.5625 297.726562 L 401.835938 297.867188 L 403.472656 297.941406 L 405.109375 298.011719 L 406.746094 298.085938 L 410.019531 298.226562 L 411.65625 298.300781 L 413.292969 298.371094 L 414.929688 298.445312 L 416.566406 298.515625 L 418.203125 298.589844 L 421.476562 298.730469 L 423.113281 298.804688 L 424.75 298.875 L 426.386719 298.949219 L 429.660156 299.089844 L 431.296875 299.164062 L 432.933594 299.234375 L 434.570312 299.308594 L 437.84375 299.449219 L 439.480469 299.523438 L 441.117188 299.59375 L 442.753906 299.667969 L 444.390625 299.738281 L 446.027344 299.8125 L 449.300781 299.953125 L 450.9375 300.027344 L 452.574219 300.097656 L 454.210938 300.171875 L 457.484375 300.3125 L 459.121094 300.386719 L 460.757812 300.457031 L 462.394531 300.53125 L 465.667969 300.671875 L 467.304688 300.746094 L 468.941406 300.816406 L 470.578125 300.890625 L 472.214844 300.960938 L 473.851562 301.035156 L 477.125 301.175781 L 478.761719 301.25 L 480.398438 301.320312 L 482.035156 301.394531 L 485.308594 301.535156 L 486.945312 301.609375 L 488.582031 301.679688 L 490.21875 301.753906 L 493.492188 301.894531 L 495.128906 301.96875 L 496.765625 302.039062 L 498.402344 302.113281 L 500.039062 302.183594 L 501.675781 302.257812 L 504.949219 302.398438 L 506.585938 302.472656 L 508.222656 302.542969 L 509.859375 302.617188 L 513.132812 302.757812 L 514.769531 302.832031 L 516.40625 302.902344 L 518.042969 302.976562 L 521.316406 303.117188 L 522.953125 303.191406 L 524.589844 303.261719 L 526.226562 303.335938 L 527.863281 303.40625 L 529.5 303.480469 L 532.773438 303.621094 L 534.410156 303.695312 L 536.046875 303.765625 L 537.683594 303.839844 L 540.957031 303.980469 L 542.59375 304.054688 L 544.230469 304.125 L 545.867188 304.199219 L 549.140625 304.339844 L 550.777344 304.414062 L 552.414062 304.484375 L 554.046875 304.558594 L 555.683594 304.628906 L 557.320312 304.703125 L 560.59375 304.84375 L 562.230469 304.917969 L 563.867188 304.988281 L 565.503906 305.0625 L 568.777344 305.203125 L 570.414062 305.277344 L 572.050781 305.347656 L 573.6875 305.421875 L 576.960938 305.5625 L 578.597656 305.636719 L 580.234375 305.707031 L 581.871094 305.78125 L 583.507812 305.851562 L 584 305.875 "
       id="path97" />
  </g>
  <g
     clip-path="url(#clip-2-12835ccc)"
     id="g100">
    <path
       fill="none"
       stroke-width="2"
       stroke-linecap="butt"
       stroke-linejoin="miter"
       stroke="rgb(100%, 100%, 100%)"
       stroke-opacity="0.5"
       stroke-dasharray="6 6"
       stroke-miterlimit="1.154701"
       d="M 148.152344 362 L 148.152344 88 "
       id="path99" />
  </g>
  <g
     fill="rgb(100%, 100%, 100%)"
     fill-opacity="1"
     id="g101">
    <use
       xlink:href="#glyph-11-0-12835ccc"
       x="151.916958"
       y="328.130705"
       id="use100" />
  </g>
  <g
     fill="rgb(100%, 100%, 100%)"
     fill-opacity="1"
     id="g102">
    <use
       xlink:href="#glyph-12-0-12835ccc"
       x="160.682957"
       y="328.130705"
       id="use101" />
  </g>
  <g
     fill="rgb(100%, 100%, 100%)"
     fill-opacity="1"
     id="g108">
    <use
       xlink:href="#glyph-11-1-12835ccc"
       x="170.762958"
       y="328.130705"
       id="use102" />
    <use
       xlink:href="#glyph-11-2-12835ccc"
       x="175.658958"
       y="328.130705"
       id="use103" />
    <use
       xlink:href="#glyph-11-3-12835ccc"
       x="185.270957"
       y="328.130705"
       id="use104" />
    <use
       xlink:href="#glyph-11-4-12835ccc"
       x="191.876956"
       y="328.130705"
       id="use105" />
    <use
       xlink:href="#glyph-11-2-12835ccc"
       x="196.124957"
       y="328.130705"
       id="use106" />
    <use
       xlink:href="#glyph-11-5-12835ccc"
       x="205.736957"
       y="328.130705"
       id="use107" />
    <use
       xlink:href="#glyph-11-6-12835ccc"
       x="215.240954"
       y="328.130705"
       id="use108" />
  </g>
  <g
     fill="rgb(100%, 100%, 100%)"
     fill-opacity="1"
     id="g140">
    <use
       xlink:href="#glyph-0-12-12835ccc"
       x="285.01488"
       y="38.199977"
       id="use133" />
    <use
       xlink:href="#glyph-0-13-12835ccc"
       x="298.742881"
       y="38.199977"
       id="use134" />
    <use
       xlink:href="#glyph-0-14-12835ccc"
       x="304.742882"
       y="38.199977"
       id="use135" />
    <use
       xlink:href="#glyph-0-2-12835ccc"
       x="325.694882"
       y="38.199977"
       id="use136" />
    <use
       xlink:href="#glyph-0-3-12835ccc"
       x="338.870885"
       y="38.199977"
       id="use137" />
    <use
       xlink:href="#glyph-0-4-12835ccc"
       x="344.534886"
       y="38.199977"
       id="use138" />
    <use
       xlink:href="#glyph-0-5-12835ccc"
       x="352.574887"
       y="38.199977"
       id="use139" />
    <use
       xlink:href="#glyph-0-15-12835ccc"
       x="372.062887"
       y="38.199977"
       id="use140" />
  </g>
  <g
     fill="rgb(100%, 100%, 100%)"
     fill-opacity="1"
     id="g142">
    <use
       xlink:href="#glyph-16-0-12835ccc"
       x="384.038885"
       y="38.199977"
       id="use141" />
    <use
       xlink:href="#glyph-16-0-12835ccc"
       x="392.99201"
       y="38.199977"
       id="use142" />
  </g>
  <g
     fill="rgb(100%, 100%, 100%)"
     fill-opacity="1"
     id="g143">
    <use
       xlink:href="#glyph-0-7-12835ccc"
       x="401.945135"
       y="38.199977"
       id="use143" />
  </g>
  <g
     fill="rgb(100%, 100%, 100%)"
     fill-opacity="1"
     id="g144">
    <use
       xlink:href="#glyph-0-10-12835ccc"
       x="140.952591"
       y="72.39999"
       id="use144" />
  </g>
  <g
     fill="rgb(100%, 100%, 100%)"
     fill-opacity="1"
     id="g147">
    <use
       xlink:href="#glyph-0-11-12835ccc"
       x="290.220411"
       y="72.39999"
       id="use145" />
    <use
       xlink:href="#glyph-0-10-12835ccc"
       x="304.620412"
       y="72.39999"
       id="use146" />
    <use
       xlink:href="#glyph-0-10-12835ccc"
       x="319.020413"
       y="72.39999"
       id="use147" />
  </g>
  <g
     fill="rgb(100%, 100%, 100%)"
     fill-opacity="1"
     id="g150">
    <use
       xlink:href="#glyph-0-16-12835ccc"
       x="453.888231"
       y="72.39999"
       id="use148" />
    <use
       xlink:href="#glyph-0-10-12835ccc"
       x="468.288232"
       y="72.39999"
       id="use149" />
    <use
       xlink:href="#glyph-0-10-12835ccc"
       x="482.688233"
       y="72.39999"
       id="use150" />
  </g>
  <path
     fill="none"
     stroke-width="2"
     stroke-linecap="butt"
     stroke-linejoin="miter"
     stroke="rgb(100%, 100%, 100%)"
     stroke-opacity="1"
     stroke-miterlimit="1.154701"
     d="M 258.300781 363 L 258.300781 368 "
     id="path150" />
  <path
     fill="none"
     stroke-width="2"
     stroke-linecap="butt"
     stroke-linejoin="miter"
     stroke="rgb(100%, 100%, 100%)"
     stroke-opacity="1"
     stroke-miterlimit="1.154701"
     d="M 421.96875 363 L 421.96875 368 "
     id="path151" />
  <path
     fill="none"
     stroke-width="2"
     stroke-linecap="butt"
     stroke-linejoin="miter"
     stroke="rgb(100%, 100%, 100%)"
     stroke-opacity="1"
     stroke-miterlimit="1.154701"
     d="M 110 302.785156 L 105 302.785156 "
     id="path152" />
  <path
     fill="none"
     stroke-width="2"
     stroke-linecap="butt"
     stroke-linejoin="miter"
     stroke="rgb(100%, 100%, 100%)"
     stroke-opacity="1"
     stroke-miterlimit="1.154701"
     d="M 110 241.015625 L 105 241.015625 "
     id="path153" />
  <path
     fill="none"
     stroke-width="2"
     stroke-linecap="butt"
     stroke-linejoin="miter"
     stroke="rgb(100%, 100%, 100%)"
     stroke-opacity="1"
     stroke-miterlimit="1.154701"
     d="M 110 179.242188 L 105 179.242188 "
     id="path154" />
  <path
     fill="none"
     stroke-width="2"
     stroke-linecap="butt"
     stroke-linejoin="miter"
     stroke="rgb(100%, 100%, 100%)"
     stroke-opacity="1"
     stroke-miterlimit="1.154701"
     d="M 110 117.472656 L 105 117.472656 "
     id="path155" />
  <path
     fill="none"
     stroke-width="2"
     stroke-linecap="butt"
     stroke-linejoin="miter"
     stroke="rgb(100%, 100%, 100%)"
     stroke-opacity="1"
     stroke-miterlimit="1.154701"
     d="M 148.152344 87 L 148.152344 82 "
     id="path156" />
  <path
     fill="none"
     stroke-width="2"
     stroke-linecap="butt"
     stroke-linejoin="miter"
     stroke="rgb(100%, 100%, 100%)"
     stroke-opacity="1"
     stroke-miterlimit="1.154701"
     d="M 311.820312 87 L 311.820312 82 "
     id="path157" />
  <path
     fill="none"
     stroke-width="2"
     stroke-linecap="butt"
     stroke-linejoin="miter"
     stroke="rgb(100%, 100%, 100%)"
     stroke-opacity="1"
     stroke-miterlimit="1.154701"
     d="M 475.488281 87 L 475.488281 82 "
     id="path158" />
  <path
     fill="none"
     stroke-width="2"
     stroke-linecap="butt"
     stroke-linejoin="miter"
     stroke="rgb(100%, 100%, 100%)"
     stroke-opacity="1"
     stroke-miterlimit="1.154701"
     d="M 110 362 L 585 362 "
     id="path159" />
  <path
     fill="none"
     stroke-width="2"
     stroke-linecap="butt"
     stroke-linejoin="miter"
     stroke="rgb(100%, 100%, 100%)"
     stroke-opacity="1"
     stroke-miterlimit="1.154701"
     d="M 111 363 L 111 87 "
     id="path160" />
  <path
     fill="none"
     stroke-width="2"
     stroke-linecap="butt"
     stroke-linejoin="miter"
     stroke="rgb(100%, 100%, 100%)"
     stroke-opacity="1"
     stroke-miterlimit="1.154701"
     d="M 110 88 L 585 88 "
     id="path161" />
  <path
     fill="none"
     stroke-width="2"
     stroke-linecap="butt"
     stroke-linejoin="miter"
     stroke="rgb(100%, 100%, 100%)"
     stroke-opacity="1"
     stroke-miterlimit="1.154701"
     d="M 584 363 L 584 87 "
     id="path162" />
  <path
     fill="none"
     stroke-width="2"
     stroke-linecap="butt"
     stroke-linejoin="miter"
     stroke="rgb(100%, 100%, 100%)"
     stroke-opacity="1"
     stroke-miterlimit="1.154701"
     d="M 110 88 L 585 88 "
     id="path163" />
  <path
     fill="none"
     stroke-width="2"
     stroke-linecap="butt"
     stroke-linejoin="miter"
     stroke="rgb(100%, 100%, 100%)"
     stroke-opacity="1"
     stroke-miterlimit="1.154701"
     d="M 111 363 L 111 87 "
     id="path164" />
  <path
     fill="none"
     stroke-width="2"
     stroke-linecap="butt"
     stroke-linejoin="miter"
     stroke="rgb(100%, 100%, 100%)"
     stroke-opacity="1"
     stroke-miterlimit="1.154701"
     d="M 110 362 L 585 362 "
     id="path165" />
  <path
     fill="none"
     stroke-width="2"
     stroke-linecap="butt"
     stroke-linejoin="miter"
     stroke="rgb(100%, 100%, 100%)"
     stroke-opacity="1"
     stroke-miterlimit="1.154701"
     d="M 584 363 L 584 87 "
     id="path166" />
</svg>
