<?xml version="1.0" encoding="UTF-8"?>
<svg xmlns="http://www.w3.org/2000/svg" xmlns:xlink="http://www.w3.org/1999/xlink" width="600" height="300" viewBox="0 0 600 300">
<defs>
<g>
<g id="glyph-0-0-e565676f">
<path d="M 1.484375 0 L 6.5625 0 C 8.203125 0 9.4375 -1.390625 9.4375 -3.234375 C 9.4375 -5.09375 8.046875 -5.78125 7.25 -5.828125 L 7.25 -5.921875 C 7.984375 -6.03125 9.0625 -6.625 9.0625 -8.28125 C 9.0625 -10.03125 7.921875 -11.171875 6.078125 -11.171875 L 1.484375 -11.171875 Z M 2.828125 -5.1875 L 6.140625 -5.1875 C 7.296875 -5.1875 8 -4.578125 8 -3.453125 L 8 -2.90625 C 8 -1.796875 7.296875 -1.1875 6.140625 -1.1875 L 2.828125 -1.1875 Z M 2.828125 -9.984375 L 5.921875 -9.984375 C 6.96875 -9.984375 7.609375 -9.421875 7.609375 -8.4375 L 7.609375 -7.890625 C 7.609375 -6.890625 6.96875 -6.34375 5.921875 -6.34375 L 2.828125 -6.34375 Z M 2.828125 -9.984375 "/>
</g>
<g id="glyph-0-1-e565676f">
<path d="M 4.484375 0.1875 C 6.6875 0.1875 8.203125 -1.5 8.203125 -4.125 C 8.203125 -6.75 6.6875 -8.453125 4.484375 -8.453125 C 2.265625 -8.453125 0.75 -6.75 0.75 -4.125 C 0.75 -1.5 2.265625 0.1875 4.484375 0.1875 Z M 4.484375 -0.9375 C 3.109375 -0.9375 2.125 -1.796875 2.125 -3.53125 L 2.125 -4.71875 C 2.125 -6.46875 3.109375 -7.3125 4.484375 -7.3125 C 5.859375 -7.3125 6.828125 -6.46875 6.828125 -4.71875 L 6.828125 -3.53125 C 6.828125 -1.796875 5.859375 -0.9375 4.484375 -0.9375 Z M 4.484375 -0.9375 "/>
</g>
<g id="glyph-0-2-e565676f">
<path d="M 2.640625 0 L 2.640625 -5.734375 C 2.640625 -6.78125 3.59375 -7.296875 4.609375 -7.296875 C 5.828125 -7.296875 6.390625 -6.546875 6.390625 -5.078125 L 6.390625 0 L 7.65625 0 L 7.65625 -5.734375 C 7.65625 -6.78125 8.59375 -7.296875 9.59375 -7.296875 C 10.84375 -7.296875 11.40625 -6.53125 11.40625 -5.078125 L 11.40625 0 L 12.6875 0 L 12.6875 -5.296875 C 12.6875 -7.296875 11.6875 -8.453125 10 -8.453125 C 8.59375 -8.453125 7.796875 -7.65625 7.484375 -6.765625 L 7.453125 -6.765625 C 7.015625 -7.953125 6.015625 -8.453125 4.921875 -8.453125 C 3.640625 -8.453125 3.078125 -7.765625 2.703125 -6.90625 L 2.640625 -6.90625 L 2.640625 -8.25 L 1.359375 -8.25 L 1.359375 0 Z M 2.640625 0 "/>
</g>
<g id="glyph-0-3-e565676f">
<path d="M 1.359375 0 L 2.640625 0 L 2.640625 -1.34375 L 2.703125 -1.34375 C 3.203125 -0.3125 3.984375 0.1875 5.125 0.1875 C 7.1875 0.1875 8.484375 -1.484375 8.484375 -4.125 C 8.484375 -6.765625 7.1875 -8.453125 5.125 -8.453125 C 3.984375 -8.453125 3.140625 -7.953125 2.703125 -6.90625 L 2.640625 -6.90625 L 2.640625 -11.84375 L 1.359375 -11.84375 Z M 4.765625 -0.953125 C 3.59375 -0.953125 2.640625 -1.5625 2.640625 -2.640625 L 2.640625 -5.71875 C 2.640625 -6.625 3.59375 -7.296875 4.765625 -7.296875 C 6.203125 -7.296875 7.109375 -6.296875 7.109375 -4.828125 L 7.109375 -3.421875 C 7.109375 -1.953125 6.203125 -0.953125 4.765625 -0.953125 Z M 4.765625 -0.953125 "/>
</g>
<g id="glyph-0-4-e565676f">
<path d="M 8.078125 0 L 8.078125 -1.125 L 7.140625 -1.125 L 7.140625 -5.65625 C 7.140625 -7.40625 5.953125 -8.453125 3.96875 -8.453125 C 2.484375 -8.453125 1.484375 -7.71875 1.046875 -6.828125 L 1.8125 -6.109375 C 2.25 -6.859375 2.90625 -7.34375 3.90625 -7.34375 C 5.21875 -7.34375 5.859375 -6.703125 5.859375 -5.53125 L 5.859375 -4.71875 L 4.21875 -4.71875 C 1.828125 -4.71875 0.703125 -3.859375 0.703125 -2.296875 C 0.703125 -0.765625 1.734375 0.1875 3.46875 0.1875 C 4.625 0.1875 5.5 -0.34375 5.859375 -1.34375 L 5.9375 -1.34375 C 6.03125 -0.578125 6.421875 0 7.359375 0 Z M 3.6875 -0.890625 C 2.6875 -0.890625 2.046875 -1.359375 2.046875 -2.171875 L 2.046875 -2.515625 C 2.046875 -3.3125 2.703125 -3.765625 4.15625 -3.765625 L 5.859375 -3.765625 L 5.859375 -2.40625 C 5.859375 -1.546875 4.9375 -0.890625 3.6875 -0.890625 Z M 3.6875 -0.890625 "/>
</g>
<g id="glyph-0-5-e565676f">
<path d="M 2.640625 0 L 2.640625 -5.59375 C 2.640625 -6.390625 3.46875 -6.96875 4.84375 -6.96875 L 5.59375 -6.96875 L 5.59375 -8.25 L 5.109375 -8.25 C 3.765625 -8.25 3.015625 -7.515625 2.71875 -6.734375 L 2.640625 -6.734375 L 2.640625 -8.25 L 1.359375 -8.25 L 1.359375 0 Z M 2.640625 0 "/>
</g>
<g id="glyph-0-6-e565676f">
<path d="M 6.640625 0 L 7.921875 0 L 7.921875 -11.84375 L 6.640625 -11.84375 L 6.640625 -6.90625 L 6.578125 -6.90625 C 6.140625 -7.953125 5.296875 -8.453125 4.15625 -8.453125 C 2.09375 -8.453125 0.796875 -6.765625 0.796875 -4.125 C 0.796875 -1.484375 2.09375 0.1875 4.15625 0.1875 C 5.296875 0.1875 6.078125 -0.3125 6.578125 -1.34375 L 6.640625 -1.34375 Z M 4.515625 -0.953125 C 3.078125 -0.953125 2.171875 -1.953125 2.171875 -3.421875 L 2.171875 -4.828125 C 2.171875 -6.296875 3.078125 -7.296875 4.515625 -7.296875 C 5.6875 -7.296875 6.640625 -6.625 6.640625 -5.71875 L 6.640625 -2.640625 C 6.640625 -1.5625 5.6875 -0.953125 4.515625 -0.953125 Z M 4.515625 -0.953125 "/>
</g>
<g id="glyph-0-7-e565676f">
<path d="M 4.46875 0.1875 C 6.015625 0.1875 7.203125 -0.578125 7.734375 -1.703125 L 6.8125 -2.359375 C 6.390625 -1.4375 5.578125 -0.921875 4.546875 -0.921875 C 3.015625 -0.921875 2.09375 -2 2.09375 -3.421875 L 2.09375 -3.8125 L 8.03125 -3.8125 L 8.03125 -4.421875 C 8.03125 -6.75 6.671875 -8.453125 4.46875 -8.453125 C 2.21875 -8.453125 0.75 -6.75 0.75 -4.125 C 0.75 -1.5 2.21875 0.1875 4.46875 0.1875 Z M 4.46875 -7.375 C 5.78125 -7.375 6.65625 -6.40625 6.65625 -4.9375 L 6.65625 -4.765625 L 2.09375 -4.765625 L 2.09375 -4.875 C 2.09375 -6.3125 3.078125 -7.375 4.46875 -7.375 Z M 4.46875 -7.375 "/>
</g>
<g id="glyph-0-8-e565676f">
<path d="M 2.640625 0 L 2.640625 -5.734375 C 2.640625 -6.78125 3.625 -7.296875 4.65625 -7.296875 C 5.890625 -7.296875 6.53125 -6.546875 6.53125 -5.078125 L 6.53125 0 L 7.8125 0 L 7.8125 -5.296875 C 7.8125 -7.296875 6.734375 -8.453125 5.046875 -8.453125 C 3.8125 -8.453125 3.109375 -7.84375 2.703125 -6.90625 L 2.640625 -6.90625 L 2.640625 -8.25 L 1.359375 -8.25 L 1.359375 0 Z M 2.640625 0 "/>
</g>
<g id="glyph-0-9-e565676f">
<path d="M 4.78125 0 L 4.78125 -1.125 L 3.109375 -1.125 L 3.109375 -7.140625 L 4.90625 -7.140625 L 4.90625 -8.25 L 3.109375 -8.25 L 3.109375 -10.546875 L 1.953125 -10.546875 L 1.953125 -9.015625 C 1.953125 -8.453125 1.78125 -8.25 1.234375 -8.25 L 0.46875 -8.25 L 0.46875 -7.140625 L 1.828125 -7.140625 L 1.828125 -1.359375 C 1.828125 -0.5625 2.296875 0 3.1875 0 Z M 4.78125 0 "/>
</g>
<g id="glyph-0-10-e565676f">
</g>
<g id="glyph-0-11-e565676f">
<path d="M 5.65625 0.1875 C 8.546875 0.1875 10.40625 -1.84375 10.40625 -5.578125 C 10.40625 -9.328125 8.546875 -11.359375 5.65625 -11.359375 C 2.78125 -11.359375 0.921875 -9.328125 0.921875 -5.578125 C 0.921875 -1.84375 2.78125 0.1875 5.65625 0.1875 Z M 5.65625 -1.015625 C 3.734375 -1.015625 2.375 -2.453125 2.375 -4.65625 L 2.375 -6.515625 C 2.375 -8.71875 3.734375 -10.15625 5.65625 -10.15625 C 7.59375 -10.15625 8.953125 -8.71875 8.953125 -6.515625 L 8.953125 -4.65625 C 8.953125 -2.453125 7.59375 -1.015625 5.65625 -1.015625 Z M 5.65625 -1.015625 "/>
</g>
<g id="glyph-0-12-e565676f">
<path d="M 3.84375 0.1875 C 5.734375 0.1875 6.890625 -0.78125 6.890625 -2.390625 C 6.890625 -3.625 6.1875 -4.4375 4.375 -4.703125 L 3.734375 -4.796875 C 2.703125 -4.953125 2.140625 -5.28125 2.140625 -6.078125 C 2.140625 -6.859375 2.703125 -7.359375 3.765625 -7.359375 C 4.8125 -7.359375 5.515625 -6.859375 5.890625 -6.359375 L 6.734375 -7.125 C 6.0625 -7.953125 5.1875 -8.453125 3.859375 -8.453125 C 2.171875 -8.453125 0.90625 -7.640625 0.90625 -6.015625 C 0.90625 -4.484375 2.046875 -3.859375 3.5625 -3.625 L 4.21875 -3.53125 C 5.3125 -3.375 5.65625 -2.875 5.65625 -2.234375 C 5.65625 -1.390625 5.03125 -0.890625 3.9375 -0.890625 C 2.890625 -0.890625 2.125 -1.359375 1.484375 -2.15625 L 0.578125 -1.421875 C 1.3125 -0.453125 2.3125 0.1875 3.84375 0.1875 Z M 3.84375 0.1875 "/>
</g>
<g id="glyph-0-13-e565676f">
<path d="M 1.328125 -4.984375 C 1.328125 -1.875 2.640625 0.84375 4.21875 2.1875 L 5.4375 2.1875 C 3.71875 0.65625 2.53125 -2.046875 2.53125 -4.28125 L 2.53125 -5.65625 C 2.53125 -7.90625 3.65625 -10.5625 5.4375 -12.15625 L 4.21875 -12.15625 C 2.59375 -10.765625 1.328125 -8.078125 1.328125 -4.984375 Z M 1.328125 -4.984375 "/>
</g>
<g id="glyph-0-14-e565676f">
<path d="M 1.484375 0 L 2.796875 0 L 2.796875 -9.40625 L 2.875 -9.40625 L 3.828125 -7.53125 L 6.5 -2.671875 L 9.171875 -7.53125 L 10.109375 -9.40625 L 10.1875 -9.40625 L 10.1875 0 L 11.5 0 L 11.5 -11.171875 L 9.78125 -11.171875 L 6.5625 -5.15625 L 6.484375 -5.15625 L 3.28125 -11.171875 L 1.484375 -11.171875 Z M 1.484375 0 "/>
</g>
<g id="glyph-0-15-e565676f">
<path d="M 4.453125 -2.640625 L 4 -1.296875 L 3.921875 -1.296875 L 3.53125 -2.640625 L 1.546875 -8.25 L 0.265625 -8.25 L 3.359375 0.3125 L 2.734375 2.078125 L 1.4375 2.078125 L 1.4375 3.203125 L 2.09375 3.203125 C 3.3125 3.203125 3.640625 2.90625 4.015625 1.921875 L 7.71875 -8.25 L 6.453125 -8.25 Z M 4.453125 -2.640625 "/>
</g>
<g id="glyph-0-16-e565676f">
<path d="M 4.03125 -4.984375 C 4.03125 -8.078125 2.765625 -10.765625 1.140625 -12.15625 L -0.078125 -12.15625 C 1.703125 -10.5625 2.828125 -7.90625 2.828125 -5.65625 L 2.828125 -4.28125 C 2.828125 -2.046875 1.640625 0.65625 -0.078125 2.1875 L 1.140625 2.1875 C 2.71875 0.84375 4.03125 -1.875 4.03125 -4.984375 Z M 4.03125 -4.984375 "/>
</g>
<g id="glyph-1-0-e565676f">
<path d="M 4.828125 -4.890625 L 4.828125 -4.125 C 4.578125 -4.238281 4.3125 -4.328125 4.03125 -4.390625 C 3.757812 -4.441406 3.476562 -4.46875 3.1875 -4.46875 C 2.726562 -4.46875 2.390625 -4.410156 2.171875 -4.296875 C 1.941406 -4.171875 1.828125 -3.984375 1.828125 -3.734375 C 1.828125 -3.546875 1.910156 -3.398438 2.078125 -3.296875 C 2.234375 -3.191406 2.554688 -3.09375 3.046875 -3 L 3.359375 -2.9375 C 4.003906 -2.8125 4.457031 -2.640625 4.71875 -2.421875 C 4.988281 -2.191406 5.125 -1.878906 5.125 -1.484375 C 5.125 -1.023438 4.921875 -0.664062 4.515625 -0.40625 C 4.117188 -0.132812 3.566406 0 2.859375 0 C 2.554688 0 2.242188 -0.0234375 1.921875 -0.078125 C 1.609375 -0.128906 1.273438 -0.207031 0.921875 -0.3125 L 0.921875 -1.140625 C 1.253906 -0.984375 1.582031 -0.867188 1.90625 -0.796875 C 2.226562 -0.710938 2.550781 -0.671875 2.875 -0.671875 C 3.300781 -0.671875 3.628906 -0.734375 3.859375 -0.859375 C 4.085938 -0.992188 4.203125 -1.179688 4.203125 -1.421875 C 4.203125 -1.640625 4.117188 -1.804688 3.953125 -1.921875 C 3.804688 -2.023438 3.441406 -2.140625 2.859375 -2.265625 L 2.546875 -2.328125 C 1.984375 -2.429688 1.578125 -2.59375 1.328125 -2.8125 C 1.078125 -3.03125 0.953125 -3.328125 0.953125 -3.703125 C 0.953125 -4.160156 1.140625 -4.515625 1.515625 -4.765625 C 1.878906 -5.023438 2.398438 -5.15625 3.078125 -5.15625 C 3.410156 -5.15625 3.722656 -5.128906 4.015625 -5.078125 C 4.316406 -5.035156 4.585938 -4.972656 4.828125 -4.890625 Z M 4.828125 -4.890625 "/>
</g>
<g id="glyph-2-0-e565676f">
<path d="M 7.65625 0 L 7.65625 -1.03125 L 5.140625 -1.03125 L 5.140625 -9.765625 L 3.296875 -9.765625 L 0.71875 -7.34375 L 1.40625 -6.609375 L 3.859375 -8.90625 L 3.96875 -8.90625 L 3.96875 -1.03125 L 1.234375 -1.03125 L 1.234375 0 Z M 7.65625 0 "/>
</g>
<g id="glyph-2-1-e565676f">
<path d="M 4.203125 0.171875 C 6.53125 0.171875 7.5625 -1.6875 7.5625 -4.890625 C 7.5625 -8.078125 6.53125 -9.9375 4.203125 -9.9375 C 1.859375 -9.9375 0.84375 -8.078125 0.84375 -4.890625 C 0.84375 -1.6875 1.859375 0.171875 4.203125 0.171875 Z M 4.203125 -0.859375 C 2.671875 -0.859375 2.078125 -2.203125 2.078125 -4.09375 L 2.078125 -5.6875 C 2.078125 -7.578125 2.671875 -8.921875 4.203125 -8.921875 C 5.71875 -8.921875 6.328125 -7.578125 6.328125 -5.6875 L 6.328125 -4.09375 C 6.328125 -2.203125 5.71875 -0.859375 4.203125 -0.859375 Z M 4.203125 -0.859375 "/>
</g>
<g id="glyph-3-0-e565676f">
<path d="M 7.46875 -6.1875 C 7.46875 -8.515625 6.21875 -9.9375 4.1875 -9.9375 C 2.21875 -9.9375 0.9375 -8.625 0.9375 -6.703125 C 0.9375 -4.859375 2.140625 -3.703125 3.828125 -3.703125 C 5.015625 -3.703125 5.71875 -4.296875 6.171875 -5.09375 L 6.25 -5.0625 C 5.71875 -2.796875 4.546875 -1.53125 2.46875 0 L 3.96875 0 C 5.546875 -1.015625 7.46875 -3.296875 7.46875 -6.1875 Z M 4.203125 -4.6875 C 2.90625 -4.6875 2.15625 -5.4375 2.15625 -6.75 L 2.15625 -6.859375 C 2.15625 -8.171875 2.90625 -8.921875 4.203125 -8.921875 C 5.484375 -8.921875 6.25 -8.171875 6.25 -6.859375 L 6.25 -6.75 C 6.25 -5.4375 5.484375 -4.6875 4.203125 -4.6875 Z M 4.203125 -4.6875 "/>
</g>
<g id="glyph-3-1-e565676f">
<path d="M 6.96875 -9.765625 L 1.734375 -9.765625 L 1.390625 -4.390625 L 2.375 -4.25 C 2.78125 -4.703125 3.234375 -5.078125 4.125 -5.078125 C 5.453125 -5.078125 6.171875 -4.34375 6.171875 -3.046875 L 6.171875 -2.90625 C 6.171875 -1.625 5.453125 -0.875 4.125 -0.875 C 2.953125 -0.875 2.46875 -1.40625 1.953125 -2.171875 L 1.078125 -1.5 C 1.671875 -0.65625 2.5 0.171875 4.125 0.171875 C 6.1875 0.171875 7.421875 -1.15625 7.421875 -3.0625 C 7.421875 -4.953125 6.1875 -6.09375 4.515625 -6.09375 C 3.484375 -6.09375 2.96875 -5.671875 2.5 -5.015625 L 2.40625 -5.015625 L 2.6875 -8.734375 L 6.96875 -8.734375 Z M 6.96875 -9.765625 "/>
</g>
<g id="glyph-3-2-e565676f">
<path d="M 3.640625 0 L 10.421875 -9.765625 L 9.34375 -9.765625 L 2.5625 0 Z M 3.125 -4.390625 C 4.53125 -4.390625 5.328125 -5.375 5.328125 -7.171875 C 5.328125 -8.953125 4.53125 -9.9375 3.125 -9.9375 C 1.703125 -9.9375 0.90625 -8.953125 0.90625 -7.171875 C 0.90625 -5.375 1.703125 -4.390625 3.125 -4.390625 Z M 3.125 -5.125 C 2.3125 -5.125 1.921875 -5.6875 1.921875 -6.75 L 1.921875 -7.59375 C 1.921875 -8.65625 2.3125 -9.21875 3.125 -9.21875 C 3.9375 -9.21875 4.328125 -8.65625 4.328125 -7.59375 L 4.328125 -6.75 C 4.328125 -5.6875 3.9375 -5.125 3.125 -5.125 Z M 9.859375 0.171875 C 11.265625 0.171875 12.0625 -0.8125 12.0625 -2.609375 C 12.0625 -4.390625 11.265625 -5.375 9.859375 -5.375 C 8.4375 -5.375 7.640625 -4.390625 7.640625 -2.609375 C 7.640625 -0.8125 8.4375 0.171875 9.859375 0.171875 Z M 9.859375 -0.5625 C 9.046875 -0.5625 8.65625 -1.125 8.65625 -2.1875 L 8.65625 -3.03125 C 8.65625 -4.09375 9.046875 -4.640625 9.859375 -4.640625 C 10.671875 -4.640625 11.0625 -4.09375 11.0625 -3.03125 L 11.0625 -2.1875 C 11.0625 -1.125 10.671875 -0.5625 9.859375 -0.5625 Z M 9.859375 -0.5625 "/>
</g>
<g id="glyph-3-3-e565676f">
</g>
<g id="glyph-4-0-e565676f">
<path d="M 4.75 0.171875 C 6.375 0.171875 7.5625 -0.6875 8.171875 -2.0625 L 7.234375 -2.640625 C 6.84375 -1.578125 5.984375 -0.875 4.75 -0.875 C 3.0625 -0.875 2.078125 -2.09375 2.078125 -4.109375 L 2.078125 -5.5625 C 2.078125 -7.5625 3.0625 -8.890625 4.75 -8.890625 C 5.953125 -8.890625 6.765625 -8.234375 7.15625 -7.21875 L 8.109375 -7.796875 C 7.484375 -9.15625 6.375 -9.9375 4.75 -9.9375 C 2.28125 -9.9375 0.8125 -8.09375 0.8125 -4.828125 C 0.8125 -1.5625 2.28125 0.171875 4.75 0.171875 Z M 4.75 0.171875 "/>
</g>
<g id="glyph-4-1-e565676f">
<path d="M 4.765625 0 L 4.765625 -0.984375 L 3.390625 -0.984375 L 3.390625 -8.796875 L 4.765625 -8.796875 L 4.765625 -9.765625 L 0.84375 -9.765625 L 0.84375 -8.796875 L 2.21875 -8.796875 L 2.21875 -0.984375 L 0.84375 -0.984375 L 0.84375 0 Z M 4.765625 0 "/>
</g>
<g id="glyph-5-0-e565676f">
<path d="M 6.96875 -9.765625 L 1.734375 -9.765625 L 1.390625 -4.390625 L 2.375 -4.25 C 2.78125 -4.703125 3.234375 -5.078125 4.125 -5.078125 C 5.453125 -5.078125 6.171875 -4.34375 6.171875 -3.046875 L 6.171875 -2.90625 C 6.171875 -1.625 5.453125 -0.875 4.125 -0.875 C 2.953125 -0.875 2.46875 -1.40625 1.953125 -2.171875 L 1.078125 -1.5 C 1.671875 -0.65625 2.5 0.171875 4.125 0.171875 C 6.1875 0.171875 7.421875 -1.15625 7.421875 -3.0625 C 7.421875 -4.953125 6.1875 -6.09375 4.515625 -6.09375 C 3.484375 -6.09375 2.96875 -5.671875 2.5 -5.015625 L 2.40625 -5.015625 L 2.6875 -8.734375 L 6.96875 -8.734375 Z M 6.96875 -9.765625 "/>
</g>
<g id="glyph-5-1-e565676f">
<path d="M 4.203125 0.171875 C 6.53125 0.171875 7.5625 -1.6875 7.5625 -4.890625 C 7.5625 -8.078125 6.53125 -9.9375 4.203125 -9.9375 C 1.859375 -9.9375 0.84375 -8.078125 0.84375 -4.890625 C 0.84375 -1.6875 1.859375 0.171875 4.203125 0.171875 Z M 4.203125 -0.859375 C 2.671875 -0.859375 2.078125 -2.203125 2.078125 -4.09375 L 2.078125 -5.6875 C 2.078125 -7.578125 2.671875 -8.921875 4.203125 -8.921875 C 5.71875 -8.921875 6.328125 -7.578125 6.328125 -5.6875 L 6.328125 -4.09375 C 6.328125 -2.203125 5.71875 -0.859375 4.203125 -0.859375 Z M 4.203125 -0.859375 "/>
</g>
<g id="glyph-5-2-e565676f">
<path d="M 3.640625 0 L 10.421875 -9.765625 L 9.34375 -9.765625 L 2.5625 0 Z M 3.125 -4.390625 C 4.53125 -4.390625 5.328125 -5.375 5.328125 -7.171875 C 5.328125 -8.953125 4.53125 -9.9375 3.125 -9.9375 C 1.703125 -9.9375 0.90625 -8.953125 0.90625 -7.171875 C 0.90625 -5.375 1.703125 -4.390625 3.125 -4.390625 Z M 3.125 -5.125 C 2.3125 -5.125 1.921875 -5.6875 1.921875 -6.75 L 1.921875 -7.59375 C 1.921875 -8.65625 2.3125 -9.21875 3.125 -9.21875 C 3.9375 -9.21875 4.328125 -8.65625 4.328125 -7.59375 L 4.328125 -6.75 C 4.328125 -5.6875 3.9375 -5.125 3.125 -5.125 Z M 9.859375 0.171875 C 11.265625 0.171875 12.0625 -0.8125 12.0625 -2.609375 C 12.0625 -4.390625 11.265625 -5.375 9.859375 -5.375 C 8.4375 -5.375 7.640625 -4.390625 7.640625 -2.609375 C 7.640625 -0.8125 8.4375 0.171875 9.859375 0.171875 Z M 9.859375 -0.5625 C 9.046875 -0.5625 8.65625 -1.125 8.65625 -2.1875 L 8.65625 -3.03125 C 8.65625 -4.09375 9.046875 -4.640625 9.859375 -4.640625 C 10.671875 -4.640625 11.0625 -4.09375 11.0625 -3.03125 L 11.0625 -2.1875 C 11.0625 -1.125 10.671875 -0.5625 9.859375 -0.5625 Z M 9.859375 -0.5625 "/>
</g>
<g id="glyph-5-3-e565676f">
</g>
<g id="glyph-5-4-e565676f">
<path d="M 4.75 0.171875 C 6.375 0.171875 7.5625 -0.6875 8.171875 -2.0625 L 7.234375 -2.640625 C 6.84375 -1.578125 5.984375 -0.875 4.75 -0.875 C 3.0625 -0.875 2.078125 -2.09375 2.078125 -4.109375 L 2.078125 -5.5625 C 2.078125 -7.5625 3.0625 -8.890625 4.75 -8.890625 C 5.953125 -8.890625 6.765625 -8.234375 7.15625 -7.21875 L 8.109375 -7.796875 C 7.484375 -9.15625 6.375 -9.9375 4.75 -9.9375 C 2.28125 -9.9375 0.8125 -8.09375 0.8125 -4.828125 C 0.8125 -1.5625 2.28125 0.171875 4.75 0.171875 Z M 4.75 0.171875 "/>
</g>
<g id="glyph-5-5-e565676f">
<path d="M 4.765625 0 L 4.765625 -0.984375 L 3.390625 -0.984375 L 3.390625 -8.796875 L 4.765625 -8.796875 L 4.765625 -9.765625 L 0.84375 -9.765625 L 0.84375 -8.796875 L 2.21875 -8.796875 L 2.21875 -0.984375 L 0.84375 -0.984375 L 0.84375 0 Z M 4.765625 0 "/>
</g>
<g id="glyph-6-0-e565676f">
</g>
<g id="glyph-6-1-e565676f">
<path d="M 7.65625 0 L 7.65625 -1.03125 L 5.140625 -1.03125 L 5.140625 -9.765625 L 3.296875 -9.765625 L 0.71875 -7.34375 L 1.40625 -6.609375 L 3.859375 -8.90625 L 3.96875 -8.90625 L 3.96875 -1.03125 L 1.234375 -1.03125 L 1.234375 0 Z M 7.65625 0 "/>
</g>
<g id="glyph-6-2-e565676f">
<path d="M 1.90625 0.171875 C 2.484375 0.171875 2.765625 -0.171875 2.765625 -0.640625 L 2.765625 -0.828125 C 2.765625 -1.296875 2.484375 -1.640625 1.90625 -1.640625 C 1.3125 -1.640625 1.046875 -1.296875 1.046875 -0.828125 L 1.046875 -0.640625 C 1.046875 -0.171875 1.3125 0.171875 1.90625 0.171875 Z M 1.90625 0.171875 "/>
</g>
<g id="glyph-6-3-e565676f">
<path d="M 2.59375 -5.625 L 2.59375 -4.609375 L 3.734375 -4.609375 C 5.109375 -4.609375 5.84375 -3.953125 5.84375 -2.796875 L 5.84375 -2.6875 C 5.84375 -1.546875 5.109375 -0.875 3.734375 -0.875 C 2.546875 -0.875 1.96875 -1.40625 1.46875 -2.171875 L 0.59375 -1.5 C 1.1875 -0.65625 2.0625 0.171875 3.75 0.171875 C 5.734375 0.171875 7.0625 -1 7.0625 -2.671875 C 7.0625 -4.140625 6.0625 -4.921875 5.015625 -5.140625 L 5.015625 -5.1875 C 6.046875 -5.453125 6.890625 -6.21875 6.890625 -7.46875 C 6.890625 -9.0625 5.578125 -9.9375 3.921875 -9.9375 C 2.359375 -9.9375 1.5 -9.125 1.015625 -8.34375 L 1.875 -7.671875 C 2.28125 -8.40625 2.890625 -8.890625 3.890625 -8.890625 C 4.921875 -8.890625 5.640625 -8.375 5.640625 -7.34375 L 5.640625 -7.25 C 5.640625 -6.3125 4.96875 -5.625 3.65625 -5.625 Z M 2.59375 -5.625 "/>
</g>
<g id="glyph-7-0-e565676f">
<path d="M 7.578125 0 L 7.578125 -1.1875 L 2.828125 -1.1875 L 2.828125 -11.171875 L 1.484375 -11.171875 L 1.484375 0 Z M 7.578125 0 "/>
</g>
<g id="glyph-7-1-e565676f">
<path d="M 8.484375 0 L 9.828125 0 L 9.828125 -11.171875 L 8.484375 -11.171875 L 8.484375 -6.234375 L 2.828125 -6.234375 L 2.828125 -11.171875 L 1.484375 -11.171875 L 1.484375 0 L 2.828125 0 L 2.828125 -5.0625 L 8.484375 -5.0625 Z M 8.484375 0 "/>
</g>
<g id="glyph-7-2-e565676f">
<path d="M 1.484375 0 L 6.5625 0 C 8.203125 0 9.4375 -1.390625 9.4375 -3.234375 C 9.4375 -5.09375 8.046875 -5.78125 7.25 -5.828125 L 7.25 -5.921875 C 7.984375 -6.03125 9.0625 -6.625 9.0625 -8.28125 C 9.0625 -10.03125 7.921875 -11.171875 6.078125 -11.171875 L 1.484375 -11.171875 Z M 2.828125 -5.1875 L 6.140625 -5.1875 C 7.296875 -5.1875 8 -4.578125 8 -3.453125 L 8 -2.90625 C 8 -1.796875 7.296875 -1.1875 6.140625 -1.1875 L 2.828125 -1.1875 Z M 2.828125 -9.984375 L 5.921875 -9.984375 C 6.96875 -9.984375 7.609375 -9.421875 7.609375 -8.4375 L 7.609375 -7.890625 C 7.609375 -6.890625 6.96875 -6.34375 5.921875 -6.34375 L 2.828125 -6.34375 Z M 2.828125 -9.984375 "/>
</g>
<g id="glyph-7-3-e565676f">
</g>
<g id="glyph-7-4-e565676f">
<path d="M 12.234375 -5.578125 L 8.921875 -8.890625 L 8.140625 -8.125 L 9.53125 -6.75 L 10.34375 -6.078125 L 10.3125 -6.03125 L 8.765625 -6.125 L 0.875 -6.125 L 0.875 -5.046875 L 8.765625 -5.046875 L 10.3125 -5.140625 L 10.34375 -5.09375 L 9.53125 -4.421875 L 8.140625 -3.046875 L 8.921875 -2.265625 Z M 12.234375 -5.578125 "/>
</g>
<g id="glyph-8-0-e565676f">
</g>
<g id="glyph-9-0-e565676f">
<path d="M 6.546875 0 L 7.46875 0 L 7.46875 -4.3125 L 4.640625 -4.3125 L 4.640625 -3.421875 L 6.484375 -3.421875 L 6.484375 -2.59375 C 6.484375 -1.359375 5.515625 -0.75 4.359375 -0.75 C 2.765625 -0.75 1.78125 -1.859375 1.78125 -3.515625 L 1.78125 -4.875 C 1.78125 -6.53125 2.78125 -7.625 4.265625 -7.625 C 5.3125 -7.625 6.09375 -7.0625 6.484375 -6.1875 L 7.3125 -6.6875 C 6.765625 -7.78125 5.765625 -8.515625 4.265625 -8.515625 C 2.109375 -8.515625 0.703125 -6.96875 0.703125 -4.1875 C 0.703125 -1.375 2.125 0.140625 4.171875 0.140625 C 5.453125 0.140625 6.296875 -0.4375 6.5 -1.21875 L 6.546875 -1.21875 Z M 6.546875 0 "/>
</g>
<g id="glyph-9-1-e565676f">
<path d="M 6.0625 0 L 6.0625 -0.84375 L 5.359375 -0.84375 L 5.359375 -4.25 C 5.359375 -5.5625 4.46875 -6.34375 2.96875 -6.34375 C 1.859375 -6.34375 1.109375 -5.78125 0.78125 -5.125 L 1.359375 -4.578125 C 1.6875 -5.140625 2.1875 -5.515625 2.921875 -5.515625 C 3.90625 -5.515625 4.390625 -5.03125 4.390625 -4.15625 L 4.390625 -3.546875 L 3.171875 -3.546875 C 1.375 -3.546875 0.53125 -2.890625 0.53125 -1.734375 C 0.53125 -0.578125 1.296875 0.140625 2.609375 0.140625 C 3.46875 0.140625 4.125 -0.25 4.390625 -1.015625 L 4.453125 -1.015625 C 4.53125 -0.4375 4.8125 0 5.515625 0 Z M 2.765625 -0.671875 C 2.015625 -0.671875 1.53125 -1.015625 1.53125 -1.625 L 1.53125 -1.890625 C 1.53125 -2.484375 2.03125 -2.8125 3.125 -2.8125 L 4.390625 -2.8125 L 4.390625 -1.796875 C 4.390625 -1.15625 3.703125 -0.671875 2.765625 -0.671875 Z M 2.765625 -0.671875 "/>
</g>
<g id="glyph-9-2-e565676f">
<path d="M 2.875 0.140625 C 4.296875 0.140625 5.171875 -0.59375 5.171875 -1.78125 C 5.171875 -2.71875 4.640625 -3.328125 3.28125 -3.53125 L 2.796875 -3.59375 C 2.03125 -3.71875 1.609375 -3.953125 1.609375 -4.5625 C 1.609375 -5.140625 2.03125 -5.515625 2.8125 -5.515625 C 3.609375 -5.515625 4.140625 -5.140625 4.421875 -4.765625 L 5.046875 -5.34375 C 4.546875 -5.96875 3.890625 -6.34375 2.890625 -6.34375 C 1.625 -6.34375 0.6875 -5.734375 0.6875 -4.515625 C 0.6875 -3.359375 1.53125 -2.890625 2.671875 -2.71875 L 3.171875 -2.65625 C 3.984375 -2.53125 4.25 -2.15625 4.25 -1.6875 C 4.25 -1.046875 3.765625 -0.671875 2.953125 -0.671875 C 2.171875 -0.671875 1.59375 -1.015625 1.109375 -1.625 L 0.4375 -1.0625 C 0.984375 -0.34375 1.734375 0.140625 2.875 0.140625 Z M 2.875 0.140625 "/>
</g>
<g id="glyph-9-3-e565676f">
<path d="M 3.359375 0.140625 C 5.015625 0.140625 6.15625 -1.125 6.15625 -3.09375 C 6.15625 -5.0625 5.015625 -6.34375 3.359375 -6.34375 C 1.703125 -6.34375 0.5625 -5.0625 0.5625 -3.09375 C 0.5625 -1.125 1.703125 0.140625 3.359375 0.140625 Z M 3.359375 -0.703125 C 2.328125 -0.703125 1.59375 -1.34375 1.59375 -2.65625 L 1.59375 -3.546875 C 1.59375 -4.84375 2.328125 -5.484375 3.359375 -5.484375 C 4.390625 -5.484375 5.125 -4.84375 5.125 -3.546875 L 5.125 -2.65625 C 5.125 -1.34375 4.390625 -0.703125 3.359375 -0.703125 Z M 3.359375 -0.703125 "/>
</g>
<g id="glyph-9-4-e565676f">
<path d="M 4.84375 0 L 5.796875 0 L 5.796875 -6.1875 L 4.84375 -6.1875 L 4.84375 -1.90625 C 4.84375 -1.09375 4.09375 -0.71875 3.34375 -0.71875 C 2.40625 -0.71875 1.921875 -1.28125 1.921875 -2.390625 L 1.921875 -6.1875 L 0.953125 -6.1875 L 0.953125 -2.21875 C 0.953125 -0.71875 1.78125 0.140625 3.046875 0.140625 C 4.078125 0.140625 4.546875 -0.421875 4.78125 -1.015625 L 4.84375 -1.015625 Z M 4.84375 0 "/>
</g>
<g id="glyph-9-5-e565676f">
</g>
<g id="glyph-9-6-e565676f">
<path d="M 4.984375 0 L 5.9375 0 L 5.9375 -8.875 L 4.984375 -8.875 L 4.984375 -5.1875 L 4.9375 -5.1875 C 4.609375 -5.96875 3.96875 -6.34375 3.125 -6.34375 C 1.578125 -6.34375 0.59375 -5.078125 0.59375 -3.09375 C 0.59375 -1.109375 1.578125 0.140625 3.125 0.140625 C 3.96875 0.140625 4.5625 -0.234375 4.9375 -1.015625 L 4.984375 -1.015625 Z M 3.390625 -0.71875 C 2.296875 -0.71875 1.625 -1.46875 1.625 -2.5625 L 1.625 -3.625 C 1.625 -4.734375 2.296875 -5.46875 3.390625 -5.46875 C 4.265625 -5.46875 4.984375 -4.96875 4.984375 -4.28125 L 4.984375 -1.984375 C 4.984375 -1.171875 4.265625 -0.71875 3.390625 -0.71875 Z M 3.390625 -0.71875 "/>
</g>
<g id="glyph-9-7-e565676f">
<path d="M 1.5 -7.640625 C 1.90625 -7.640625 2.09375 -7.859375 2.09375 -8.1875 L 2.09375 -8.34375 C 2.09375 -8.65625 1.90625 -8.875 1.5 -8.875 C 1.09375 -8.875 0.90625 -8.65625 0.90625 -8.34375 L 0.90625 -8.1875 C 0.90625 -7.859375 1.09375 -7.640625 1.5 -7.640625 Z M 1.015625 0 L 1.984375 0 L 1.984375 -6.1875 L 1.015625 -6.1875 Z M 1.015625 0 "/>
</g>
<g id="glyph-9-8-e565676f">
<path d="M 1.015625 0 L 1.984375 0 L 1.984375 -2.203125 L 2.90625 -3.15625 L 4.953125 0 L 6.125 0 L 3.59375 -3.75 L 5.890625 -6.1875 L 4.734375 -6.1875 L 2.96875 -4.3125 L 2.03125 -3.25 L 1.984375 -3.25 L 1.984375 -8.875 L 1.015625 -8.875 Z M 1.015625 0 "/>
</g>
<g id="glyph-10-0-e565676f">
<path d="M 3.34375 0.140625 C 4.515625 0.140625 5.40625 -0.4375 5.796875 -1.265625 L 5.109375 -1.765625 C 4.78125 -1.078125 4.1875 -0.703125 3.40625 -0.703125 C 2.25 -0.703125 1.578125 -1.5 1.578125 -2.5625 L 1.578125 -2.859375 L 6.03125 -2.859375 L 6.03125 -3.3125 C 6.03125 -5.0625 5 -6.34375 3.34375 -6.34375 C 1.671875 -6.34375 0.5625 -5.0625 0.5625 -3.09375 C 0.5625 -1.125 1.671875 0.140625 3.34375 0.140625 Z M 3.34375 -5.53125 C 4.328125 -5.53125 4.984375 -4.796875 4.984375 -3.703125 L 4.984375 -3.578125 L 1.578125 -3.578125 L 1.578125 -3.65625 C 1.578125 -4.734375 2.296875 -5.53125 3.34375 -5.53125 Z M 3.34375 -5.53125 "/>
</g>
<g id="glyph-11-0-e565676f">
<path d="M 6.546875 0 L 7.46875 0 L 7.46875 -4.3125 L 4.640625 -4.3125 L 4.640625 -3.421875 L 6.484375 -3.421875 L 6.484375 -2.59375 C 6.484375 -1.359375 5.515625 -0.75 4.359375 -0.75 C 2.765625 -0.75 1.78125 -1.859375 1.78125 -3.515625 L 1.78125 -4.875 C 1.78125 -6.53125 2.78125 -7.625 4.265625 -7.625 C 5.3125 -7.625 6.09375 -7.0625 6.484375 -6.1875 L 7.3125 -6.6875 C 6.765625 -7.78125 5.765625 -8.515625 4.265625 -8.515625 C 2.109375 -8.515625 0.703125 -6.96875 0.703125 -4.1875 C 0.703125 -1.375 2.125 0.140625 4.171875 0.140625 C 5.453125 0.140625 6.296875 -0.4375 6.5 -1.21875 L 6.546875 -1.21875 Z M 6.546875 0 "/>
</g>
<g id="glyph-11-1-e565676f">
<path d="M 6.0625 0 L 6.0625 -0.84375 L 5.359375 -0.84375 L 5.359375 -4.25 C 5.359375 -5.5625 4.46875 -6.34375 2.96875 -6.34375 C 1.859375 -6.34375 1.109375 -5.78125 0.78125 -5.125 L 1.359375 -4.578125 C 1.6875 -5.140625 2.1875 -5.515625 2.921875 -5.515625 C 3.90625 -5.515625 4.390625 -5.03125 4.390625 -4.15625 L 4.390625 -3.546875 L 3.171875 -3.546875 C 1.375 -3.546875 0.53125 -2.890625 0.53125 -1.734375 C 0.53125 -0.578125 1.296875 0.140625 2.609375 0.140625 C 3.46875 0.140625 4.125 -0.25 4.390625 -1.015625 L 4.453125 -1.015625 C 4.53125 -0.4375 4.8125 0 5.515625 0 Z M 2.765625 -0.671875 C 2.015625 -0.671875 1.53125 -1.015625 1.53125 -1.625 L 1.53125 -1.890625 C 1.53125 -2.484375 2.03125 -2.8125 3.125 -2.8125 L 4.390625 -2.8125 L 4.390625 -1.796875 C 4.390625 -1.15625 3.703125 -0.671875 2.765625 -0.671875 Z M 2.765625 -0.671875 "/>
</g>
<g id="glyph-11-2-e565676f">
<path d="M 2.875 0.140625 C 4.296875 0.140625 5.171875 -0.59375 5.171875 -1.78125 C 5.171875 -2.71875 4.640625 -3.328125 3.28125 -3.53125 L 2.796875 -3.59375 C 2.03125 -3.71875 1.609375 -3.953125 1.609375 -4.5625 C 1.609375 -5.140625 2.03125 -5.515625 2.8125 -5.515625 C 3.609375 -5.515625 4.140625 -5.140625 4.421875 -4.765625 L 5.046875 -5.34375 C 4.546875 -5.96875 3.890625 -6.34375 2.890625 -6.34375 C 1.625 -6.34375 0.6875 -5.734375 0.6875 -4.515625 C 0.6875 -3.359375 1.53125 -2.890625 2.671875 -2.71875 L 3.171875 -2.65625 C 3.984375 -2.53125 4.25 -2.15625 4.25 -1.6875 C 4.25 -1.046875 3.765625 -0.671875 2.953125 -0.671875 C 2.171875 -0.671875 1.59375 -1.015625 1.109375 -1.625 L 0.4375 -1.0625 C 0.984375 -0.34375 1.734375 0.140625 2.875 0.140625 Z M 2.875 0.140625 "/>
</g>
<g id="glyph-11-3-e565676f">
<path d="M 4.984375 0 L 5.9375 0 L 5.9375 -8.875 L 4.984375 -8.875 L 4.984375 -5.1875 L 4.9375 -5.1875 C 4.609375 -5.96875 3.96875 -6.34375 3.125 -6.34375 C 1.578125 -6.34375 0.59375 -5.078125 0.59375 -3.09375 C 0.59375 -1.109375 1.578125 0.140625 3.125 0.140625 C 3.96875 0.140625 4.5625 -0.234375 4.9375 -1.015625 L 4.984375 -1.015625 Z M 3.390625 -0.71875 C 2.296875 -0.71875 1.625 -1.46875 1.625 -2.5625 L 1.625 -3.625 C 1.625 -4.734375 2.296875 -5.46875 3.390625 -5.46875 C 4.265625 -5.46875 4.984375 -4.96875 4.984375 -4.28125 L 4.984375 -1.984375 C 4.984375 -1.171875 4.265625 -0.71875 3.390625 -0.71875 Z M 3.390625 -0.71875 "/>
</g>
<g id="glyph-11-4-e565676f">
<path d="M 1.5 -7.640625 C 1.90625 -7.640625 2.09375 -7.859375 2.09375 -8.1875 L 2.09375 -8.34375 C 2.09375 -8.65625 1.90625 -8.875 1.5 -8.875 C 1.09375 -8.875 0.90625 -8.65625 0.90625 -8.34375 L 0.90625 -8.1875 C 0.90625 -7.859375 1.09375 -7.640625 1.5 -7.640625 Z M 1.015625 0 L 1.984375 0 L 1.984375 -6.1875 L 1.015625 -6.1875 Z M 1.015625 0 "/>
</g>
<g id="glyph-11-5-e565676f">
<path d="M 1.015625 2.40625 L 1.984375 2.40625 L 1.984375 -1.015625 L 2.03125 -1.015625 C 2.40625 -0.234375 2.984375 0.140625 3.84375 0.140625 C 5.390625 0.140625 6.359375 -1.109375 6.359375 -3.09375 C 6.359375 -5.078125 5.390625 -6.34375 3.84375 -6.34375 C 2.984375 -6.34375 2.359375 -5.96875 2.03125 -5.1875 L 1.984375 -5.1875 L 1.984375 -6.1875 L 1.015625 -6.1875 Z M 3.578125 -0.71875 C 2.703125 -0.71875 1.984375 -1.171875 1.984375 -1.984375 L 1.984375 -4.28125 C 1.984375 -4.96875 2.703125 -5.46875 3.578125 -5.46875 C 4.65625 -5.46875 5.328125 -4.734375 5.328125 -3.625 L 5.328125 -2.5625 C 5.328125 -1.46875 4.65625 -0.71875 3.578125 -0.71875 Z M 3.578125 -0.71875 "/>
</g>
<g id="glyph-11-6-e565676f">
<path d="M 3.59375 0 L 3.59375 -0.84375 L 2.328125 -0.84375 L 2.328125 -5.359375 L 3.6875 -5.359375 L 3.6875 -6.1875 L 2.328125 -6.1875 L 2.328125 -7.90625 L 1.46875 -7.90625 L 1.46875 -6.75 C 1.46875 -6.34375 1.328125 -6.1875 0.921875 -6.1875 L 0.34375 -6.1875 L 0.34375 -5.359375 L 1.375 -5.359375 L 1.375 -1.015625 C 1.375 -0.421875 1.734375 0 2.390625 0 Z M 3.59375 0 "/>
</g>
<g id="glyph-11-7-e565676f">
<path d="M 3.359375 0.140625 C 5.015625 0.140625 6.15625 -1.125 6.15625 -3.09375 C 6.15625 -5.0625 5.015625 -6.34375 3.359375 -6.34375 C 1.703125 -6.34375 0.5625 -5.0625 0.5625 -3.09375 C 0.5625 -1.125 1.703125 0.140625 3.359375 0.140625 Z M 3.359375 -0.703125 C 2.328125 -0.703125 1.59375 -1.34375 1.59375 -2.65625 L 1.59375 -3.546875 C 1.59375 -4.84375 2.328125 -5.484375 3.359375 -5.484375 C 4.390625 -5.484375 5.125 -4.84375 5.125 -3.546875 L 5.125 -2.65625 C 5.125 -1.34375 4.390625 -0.703125 3.359375 -0.703125 Z M 3.359375 -0.703125 "/>
</g>
<g id="glyph-11-8-e565676f">
<path d="M 1.984375 0 L 1.984375 -4.296875 C 1.984375 -5.09375 2.71875 -5.46875 3.484375 -5.46875 C 4.421875 -5.46875 4.890625 -4.90625 4.890625 -3.796875 L 4.890625 0 L 5.859375 0 L 5.859375 -3.96875 C 5.859375 -5.46875 5.046875 -6.34375 3.78125 -6.34375 C 2.859375 -6.34375 2.328125 -5.875 2.03125 -5.1875 L 1.984375 -5.1875 L 1.984375 -6.1875 L 1.015625 -6.1875 L 1.015625 0 Z M 1.984375 0 "/>
</g>
<g id="glyph-12-0-e565676f">
</g>
</g>
<clipPath id="clip-0-e565676f">
<path clip-rule="nonzero" d="M 148 77 L 588 77 L 588 231 L 148 231 Z M 148 77 "/>
</clipPath>
<clipPath id="clip-1-e565676f">
<path clip-rule="nonzero" d="M 148 76 L 588 76 L 588 232 L 148 232 Z M 148 76 "/>
</clipPath>
<clipPath id="clip-2-e565676f">
<path clip-rule="nonzero" d="M 148 229 L 588 229 L 588 232 L 148 232 Z M 148 229 "/>
</clipPath>
<clipPath id="clip-3-e565676f">
<path clip-rule="nonzero" d="M 402 16 L 405 16 L 405 235 L 402 235 Z M 402 16 "/>
</clipPath>
</defs>
<g fill="rgb(100%, 100%, 100%)" fill-opacity="1">
<use xlink:href="#glyph-0-0-e565676f" x="269.199263" y="281.599996"/>
<use xlink:href="#glyph-0-1-e565676f" x="279.647262" y="281.599996"/>
<use xlink:href="#glyph-0-2-e565676f" x="288.607261" y="281.599996"/>
<use xlink:href="#glyph-0-3-e565676f" x="302.575264" y="281.599996"/>
<use xlink:href="#glyph-0-4-e565676f" x="311.855263" y="281.599996"/>
<use xlink:href="#glyph-0-5-e565676f" x="320.399262" y="281.599996"/>
<use xlink:href="#glyph-0-6-e565676f" x="326.271263" y="281.599996"/>
<use xlink:href="#glyph-0-2-e565676f" x="335.551262" y="281.599996"/>
<use xlink:href="#glyph-0-7-e565676f" x="349.519265" y="281.599996"/>
<use xlink:href="#glyph-0-8-e565676f" x="358.303269" y="281.599996"/>
<use xlink:href="#glyph-0-9-e565676f" x="367.391267" y="281.599996"/>
<use xlink:href="#glyph-0-10-e565676f" x="373.007265" y="281.599996"/>
<use xlink:href="#glyph-0-11-e565676f" x="376.783266" y="281.599996"/>
<use xlink:href="#glyph-0-8-e565676f" x="388.111269" y="281.599996"/>
<use xlink:href="#glyph-0-12-e565676f" x="397.199267" y="281.599996"/>
<use xlink:href="#glyph-0-7-e565676f" x="404.991259" y="281.599996"/>
<use xlink:href="#glyph-0-9-e565676f" x="413.775256" y="281.599996"/>
<use xlink:href="#glyph-0-10-e565676f" x="419.391253" y="281.599996"/>
<use xlink:href="#glyph-0-13-e565676f" x="423.167254" y="281.599996"/>
<use xlink:href="#glyph-0-14-e565676f" x="428.527255" y="281.599996"/>
<use xlink:href="#glyph-0-15-e565676f" x="441.51926" y="281.599996"/>
</g>
<g fill="rgb(100%, 100%, 100%)" fill-opacity="1">
<use xlink:href="#glyph-1-0-e565676f" x="449.503253" y="281.599996"/>
<use xlink:href="#glyph-1-0-e565676f" x="455.472004" y="281.599996"/>
</g>
<g fill="rgb(100%, 100%, 100%)" fill-opacity="1">
<use xlink:href="#glyph-0-16-e565676f" x="461.440754" y="281.599996"/>
</g>
<g fill="rgb(100%, 100%, 100%)" fill-opacity="1">
<use xlink:href="#glyph-2-0-e565676f" x="253.951098" y="258.349998"/>
</g>
<g fill="rgb(100%, 100%, 100%)" fill-opacity="1">
<use xlink:href="#glyph-2-0-e565676f" x="387.440005" y="258.349998"/>
<use xlink:href="#glyph-2-1-e565676f" x="395.840006" y="258.349998"/>
</g>
<g fill="rgb(100%, 100%, 100%)" fill-opacity="1">
<use xlink:href="#glyph-2-0-e565676f" x="520.928882" y="258.349998"/>
<use xlink:href="#glyph-2-1-e565676f" x="529.328883" y="258.349998"/>
<use xlink:href="#glyph-2-1-e565676f" x="537.728883" y="258.349998"/>
</g>
<path fill-rule="nonzero" fill="rgb(42.147499%, 27.8%, 31.1775%)" fill-opacity="1" d="M 258.152344 235 L 323.84375 235 L 323.84375 16 L 258.152344 16 Z M 258.152344 235 "/>
<path fill-rule="nonzero" fill="rgb(45.365%, 43.715%, 32.659999%)" fill-opacity="1" d="M 323.84375 235 L 354.390625 235 L 354.390625 16 L 323.84375 16 Z M 323.84375 235 "/>
<g clip-path="url(#clip-0-e565676f)">
<path fill-rule="nonzero" fill="rgb(70.19608%, 70.19608%, 70.19608%)" fill-opacity="0.6" d="M -330.480469 230.40625 L 588 230.40625 L 560.984375 230.40625 L 560.984375 230.351562 L 547.480469 230.351562 L 547.480469 228.269531 L 533.972656 228.269531 L 533.972656 229.519531 L 520.464844 229.519531 L 520.464844 218.921875 L 506.957031 218.921875 L 506.957031 191.433594 L 493.449219 191.433594 L 493.449219 191.945312 L 479.945312 191.945312 L 479.945312 174.738281 L 466.4375 174.738281 L 466.4375 129.375 L 452.929688 129.375 L 452.929688 100.195312 L 439.421875 100.195312 L 439.421875 98.617188 L 425.914062 98.617188 L 425.914062 77.257812 L 412.40625 77.257812 L 412.40625 93.167969 L 398.902344 93.167969 L 398.902344 114.617188 L 385.394531 114.617188 L 385.394531 130.035156 L 371.886719 130.035156 L 371.886719 149.449219 L 358.378906 149.449219 L 358.378906 162.425781 L 344.871094 162.425781 L 344.871094 173.382812 L 331.367188 173.382812 L 331.367188 180.910156 L 317.859375 180.910156 L 317.859375 185.75 L 304.351562 185.75 L 304.351562 197.445312 L 290.84375 197.445312 L 290.84375 202.871094 L 277.335938 202.871094 L 277.335938 203.796875 L 263.832031 203.796875 L 263.832031 206.144531 L 250.324219 206.144531 L 250.324219 213.574219 L 236.816406 213.574219 L 236.816406 216.875 L 223.308594 216.875 L 223.308594 220.859375 L 209.800781 220.859375 L 209.800781 224.144531 L 196.296875 224.144531 L 196.296875 223.675781 L 182.789062 223.675781 L 182.789062 225.140625 L 169.28125 225.140625 L 169.28125 226.664062 L 155.773438 226.664062 L 155.773438 227.046875 L 142.265625 227.046875 L 142.265625 227.28125 L 128.761719 227.28125 L 128.761719 225.941406 L 115.253906 225.941406 L 115.253906 228.683594 L 101.746094 228.683594 L 101.746094 228.839844 L 88.238281 228.839844 L 88.238281 228.070312 L 74.730469 228.070312 L 74.730469 228.148438 L 61.222656 228.148438 L 61.222656 229.800781 L 47.71875 229.800781 L 47.71875 229.742188 L 34.210938 229.742188 L 34.210938 230.277344 L 20.703125 230.277344 L 20.703125 230.003906 L 7.195312 230.003906 L 7.195312 230.328125 L -6.3125 230.328125 L -6.3125 229.796875 L -19.816406 229.796875 L -19.816406 230.015625 L -33.324219 230.015625 L -33.324219 229.886719 L -46.832031 229.886719 L -46.832031 230.394531 L -60.339844 230.394531 L -60.339844 230.40625 L -73.847656 230.40625 L -73.847656 230.28125 L -87.351562 230.28125 L -87.351562 230.257812 L -100.859375 230.257812 L -100.859375 230.128906 L -114.367188 230.128906 L -114.367188 230.402344 L -127.875 230.402344 L -127.875 230.34375 L -141.382812 230.34375 L -141.382812 230.40625 L -289.960938 230.40625 L -289.960938 230.402344 L -303.464844 230.402344 L -303.464844 230.40625 Z M -330.480469 230.40625 "/>
</g>
<g clip-path="url(#clip-1-e565676f)">
<path fill="none" stroke-width="2" stroke-linecap="butt" stroke-linejoin="miter" stroke="rgb(0%, 0%, 0%)" stroke-opacity="1" stroke-miterlimit="2" d="M 148 227.046875 L 155.773438 227.046875 L 155.773438 226.664062 L 169.28125 226.664062 L 169.28125 225.140625 L 182.789062 225.140625 L 182.789062 223.675781 L 196.296875 223.675781 L 196.296875 224.144531 L 209.800781 224.144531 L 209.800781 220.859375 L 223.308594 220.859375 L 223.308594 216.875 L 236.816406 216.875 L 236.816406 213.574219 L 250.324219 213.574219 L 250.324219 206.144531 L 263.832031 206.144531 L 263.832031 203.796875 L 277.335938 203.796875 L 277.335938 202.871094 L 290.84375 202.871094 L 290.84375 197.445312 L 304.351562 197.445312 L 304.351562 185.75 L 317.859375 185.75 L 317.859375 180.910156 L 331.367188 180.910156 L 331.367188 173.382812 L 344.871094 173.382812 L 344.871094 162.425781 L 358.378906 162.425781 L 358.378906 149.449219 L 371.886719 149.449219 L 371.886719 130.035156 L 385.394531 130.035156 L 385.394531 114.617188 L 398.902344 114.617188 L 398.902344 93.167969 L 412.40625 93.167969 L 412.40625 77.257812 L 425.914062 77.257812 L 425.914062 98.617188 L 439.421875 98.617188 L 439.421875 100.195312 L 452.929688 100.195312 L 452.929688 129.375 L 466.4375 129.375 L 466.4375 174.738281 L 479.945312 174.738281 L 479.945312 191.945312 L 493.449219 191.945312 L 493.449219 191.433594 L 506.957031 191.433594 L 506.957031 218.921875 L 520.464844 218.921875 L 520.464844 229.519531 L 533.972656 229.519531 L 533.972656 228.269531 L 547.480469 228.269531 L 547.480469 230.351562 L 560.984375 230.351562 L 560.984375 230.40625 L 588 230.40625 "/>
</g>
<g clip-path="url(#clip-2-e565676f)">
<path fill="none" stroke-width="2" stroke-linecap="butt" stroke-linejoin="miter" stroke="rgb(0%, 0%, 0%)" stroke-opacity="1" stroke-miterlimit="1.154701" d="M 148 230.40625 L 588 230.40625 "/>
</g>
<g clip-path="url(#clip-3-e565676f)">
<path fill="none" stroke-width="2" stroke-linecap="butt" stroke-linejoin="miter" stroke="rgb(0%, 0%, 0%)" stroke-opacity="1" stroke-miterlimit="1.154701" d="M 403.308594 235 L 403.308594 16 "/>
</g>
<path fill-rule="nonzero" fill="rgb(20%, 20%, 20%)" fill-opacity="0.9" d="M 194.605469 37.441406 L 498.558594 37.441406 L 498.558594 16 L 194.605469 16 Z M 194.605469 37.441406 "/>
<g fill="rgb(100%, 100%, 100%)" fill-opacity="1">
<use xlink:href="#glyph-3-0-e565676f" x="322.893192" y="31.970308"/>
<use xlink:href="#glyph-3-1-e565676f" x="331.293192" y="31.970308"/>
<use xlink:href="#glyph-3-2-e565676f" x="339.693192" y="31.970308"/>
<use xlink:href="#glyph-3-3-e565676f" x="352.671191" y="31.970308"/>
</g>
<g fill="rgb(100%, 100%, 100%)" fill-opacity="1">
<use xlink:href="#glyph-4-0-e565676f" x="355.975192" y="31.970308"/>
<use xlink:href="#glyph-4-1-e565676f" x="364.669192" y="31.970308"/>
</g>
<path fill-rule="nonzero" fill="rgb(20%, 20%, 20%)" fill-opacity="0.9" d="M 351.324219 61.023438 L 439.523438 61.023438 L 439.523438 39.585938 L 351.324219 39.585938 Z M 351.324219 61.023438 "/>
<g fill="rgb(100%, 100%, 100%)" fill-opacity="1">
<use xlink:href="#glyph-5-0-e565676f" x="371.735935" y="55.554921"/>
<use xlink:href="#glyph-5-1-e565676f" x="380.135935" y="55.554921"/>
<use xlink:href="#glyph-5-2-e565676f" x="388.535936" y="55.554921"/>
<use xlink:href="#glyph-5-3-e565676f" x="401.513934" y="55.554921"/>
<use xlink:href="#glyph-5-4-e565676f" x="404.817935" y="55.554921"/>
<use xlink:href="#glyph-5-5-e565676f" x="413.511935" y="55.554921"/>
</g>
<g fill="rgb(0%, 0%, 0%)" fill-opacity="1">
<use xlink:href="#glyph-6-0-e565676f" x="367.690691" y="226.555596"/>
<use xlink:href="#glyph-6-1-e565676f" x="370.994691" y="226.555596"/>
<use xlink:href="#glyph-6-1-e565676f" x="379.394691" y="226.555596"/>
<use xlink:href="#glyph-6-2-e565676f" x="387.79469" y="226.555596"/>
<use xlink:href="#glyph-6-3-e565676f" x="391.60269" y="226.555596"/>
<use xlink:href="#glyph-6-0-e565676f" x="400.00269" y="226.555596"/>
</g>
<g fill="rgb(100%, 100%, 100%)" fill-opacity="0.9">
<use xlink:href="#glyph-7-0-e565676f" x="533.775969" y="118.802806"/>
<use xlink:href="#glyph-7-1-e565676f" x="541.791967" y="118.802806"/>
<use xlink:href="#glyph-7-2-e565676f" x="553.103967" y="118.802806"/>
<use xlink:href="#glyph-7-3-e565676f" x="563.551967" y="118.802806"/>
<use xlink:href="#glyph-7-4-e565676f" x="567.327966" y="118.802806"/>
</g>
<g fill="rgb(100%, 100%, 100%)" fill-opacity="0.9">
<use xlink:href="#glyph-8-0-e565676f" x="580.447964" y="118.802806"/>
<use xlink:href="#glyph-8-0-e565676f" x="584.223965" y="118.802806"/>
</g>
<path fill="none" stroke-width="2" stroke-linecap="butt" stroke-linejoin="miter" stroke="rgb(100%, 100%, 100%)" stroke-opacity="1" stroke-miterlimit="1.154701" d="M 258.152344 236 L 258.152344 241 "/>
<path fill="none" stroke-width="2" stroke-linecap="butt" stroke-linejoin="miter" stroke="rgb(100%, 100%, 100%)" stroke-opacity="1" stroke-miterlimit="1.154701" d="M 395.839844 236 L 395.839844 241 "/>
<path fill="none" stroke-width="2" stroke-linecap="butt" stroke-linejoin="miter" stroke="rgb(100%, 100%, 100%)" stroke-opacity="1" stroke-miterlimit="1.154701" d="M 533.527344 236 L 533.527344 241 "/>
<path fill-rule="nonzero" fill="rgb(42.147499%, 27.8%, 31.1775%)" fill-opacity="1" d="M 17.40625 124 L 37.40625 124 L 37.40625 104 L 17.40625 104 Z M 17.40625 124 "/>
<path fill-rule="nonzero" fill="rgb(45.365%, 43.715%, 32.659999%)" fill-opacity="1" d="M 17.40625 147 L 37.40625 147 L 37.40625 127 L 17.40625 127 Z M 17.40625 147 "/>
<g fill="rgb(100%, 100%, 100%)" fill-opacity="1">
<use xlink:href="#glyph-9-0-e565676f" x="42.405999" y="118.499995"/>
<use xlink:href="#glyph-9-1-e565676f" x="50.746" y="118.499995"/>
<use xlink:href="#glyph-9-2-e565676f" x="57.154001" y="118.499995"/>
</g>
<g fill="rgb(100%, 100%, 100%)" fill-opacity="1">
<use xlink:href="#glyph-10-0-e565676f" x="62.997999" y="118.499995"/>
</g>
<g fill="rgb(100%, 100%, 100%)" fill-opacity="1">
<use xlink:href="#glyph-9-3-e565676f" x="69.586" y="118.499995"/>
<use xlink:href="#glyph-9-4-e565676f" x="76.306002" y="118.499995"/>
<use xlink:href="#glyph-9-2-e565676f" x="83.122004" y="118.499995"/>
<use xlink:href="#glyph-9-5-e565676f" x="88.966006" y="118.499995"/>
<use xlink:href="#glyph-9-6-e565676f" x="91.798006" y="118.499995"/>
<use xlink:href="#glyph-9-7-e565676f" x="98.758006" y="118.499995"/>
<use xlink:href="#glyph-9-2-e565676f" x="101.758006" y="118.499995"/>
<use xlink:href="#glyph-9-8-e565676f" x="107.602008" y="118.499995"/>
</g>
<g fill="rgb(100%, 100%, 100%)" fill-opacity="1">
<use xlink:href="#glyph-11-0-e565676f" x="42.405999" y="141.499996"/>
<use xlink:href="#glyph-11-1-e565676f" x="50.746" y="141.499996"/>
<use xlink:href="#glyph-11-2-e565676f" x="57.154001" y="141.499996"/>
</g>
<g fill="rgb(100%, 100%, 100%)" fill-opacity="1">
<use xlink:href="#glyph-12-0-e565676f" x="62.997999" y="141.499996"/>
</g>
<g fill="rgb(100%, 100%, 100%)" fill-opacity="1">
<use xlink:href="#glyph-11-3-e565676f" x="65.83" y="141.499996"/>
<use xlink:href="#glyph-11-4-e565676f" x="72.789999" y="141.499996"/>
<use xlink:href="#glyph-11-2-e565676f" x="75.789999" y="141.499996"/>
<use xlink:href="#glyph-11-2-e565676f" x="81.633997" y="141.499996"/>
<use xlink:href="#glyph-11-4-e565676f" x="87.477999" y="141.499996"/>
<use xlink:href="#glyph-11-5-e565676f" x="90.477999" y="141.499996"/>
<use xlink:href="#glyph-11-1-e565676f" x="97.437998" y="141.499996"/>
<use xlink:href="#glyph-11-6-e565676f" x="103.845999" y="141.499996"/>
<use xlink:href="#glyph-11-4-e565676f" x="108.058001" y="141.499996"/>
<use xlink:href="#glyph-11-7-e565676f" x="111.058001" y="141.499996"/>
<use xlink:href="#glyph-11-8-e565676f" x="117.778003" y="141.499996"/>
</g>
<path fill="none" stroke-width="2" stroke-linecap="butt" stroke-linejoin="miter" stroke="rgb(100%, 100%, 100%)" stroke-opacity="1" stroke-miterlimit="1.154701" d="M 147 235 L 589 235 "/>
<path fill="none" stroke-width="2" stroke-linecap="butt" stroke-linejoin="miter" stroke="rgb(100%, 100%, 100%)" stroke-opacity="1" stroke-miterlimit="1.154701" d="M 148 236 L 148 15 "/>
<path fill="none" stroke-width="2" stroke-linecap="butt" stroke-linejoin="miter" stroke="rgb(100%, 100%, 100%)" stroke-opacity="1" stroke-miterlimit="1.154701" d="M 147 16 L 589 16 "/>
<path fill="none" stroke-width="2" stroke-linecap="butt" stroke-linejoin="miter" stroke="rgb(100%, 100%, 100%)" stroke-opacity="1" stroke-miterlimit="1.154701" d="M 588 236 L 588 15 "/>
</svg>
