<?xml version="1.0" encoding="UTF-8" standalone="no"?>
<!-- Created with Inkscape (http://www.inkscape.org/) -->

<svg
   width="56.904919mm"
   height="56.904919mm"
   viewBox="0 0 56.904919 56.904919"
   version="1.1"
   id="svg1"
   xml:space="preserve"
   inkscape:version="1.3.2 (091e20e, 2023-11-25)"
   sodipodi:docname="geosciences.svg"
   xmlns:inkscape="http://www.inkscape.org/namespaces/inkscape"
   xmlns:sodipodi="http://sodipodi.sourceforge.net/DTD/sodipodi-0.dtd"
   xmlns:xlink="http://www.w3.org/1999/xlink"
   xmlns="http://www.w3.org/2000/svg"
   xmlns:svg="http://www.w3.org/2000/svg"><sodipodi:namedview
     id="namedview1"
     pagecolor="#505050"
     bordercolor="#ffffff"
     borderopacity="1"
     inkscape:showpageshadow="0"
     inkscape:pageopacity="0"
     inkscape:pagecheckerboard="1"
     inkscape:deskcolor="#505050"
     inkscape:document-units="mm"
     inkscape:zoom="2.9767664"
     inkscape:cx="146.80359"
     inkscape:cy="118.92099"
     inkscape:window-width="2104"
     inkscape:window-height="965"
     inkscape:window-x="0"
     inkscape:window-y="30"
     inkscape:window-maximized="0"
     inkscape:current-layer="layer1" /><defs
     id="defs1"><pattern
       inkscape:collect="always"
       xlink:href="#pattern3"
       preserveAspectRatio="xMidYMid"
       id="pattern4"
       patternTransform="translate(-139.66736,147.56246)"
       x="40"
       y="0" /><pattern
       patternUnits="userSpaceOnUse"
       width="54.308333"
       height="54.124999"
       patternTransform="translate(-139.66736,147.56246)"
       preserveAspectRatio="xMidYMid"
       id="pattern3"
       style="fill:#000000"
       inkscape:label="pattern3"><g
         id="g74"
         transform="translate(-1.6,55.724998)">
		<rect
   x="1.6"
   y="-55.724998"
   style="fill:#820501;fill-opacity:1"
   width="54.125"
   height="54.125"
   id="rect1" />
		<line
   style="fill:#820501;fill-opacity:1;stroke:#ffffff;stroke-width:0.666667;stroke-dasharray:none;stroke-opacity:1"
   x1="1.6"
   y1="-51.974998"
   x2="55.724998"
   y2="-51.974998"
   id="line1" />
		<line
   style="fill:#820501;fill-opacity:1;stroke:#ffffff;stroke-width:0.666667;stroke-dasharray:none;stroke-opacity:1"
   x1="1.6"
   y1="-47.799999"
   x2="55.724998"
   y2="-47.799999"
   id="line2" />
		<line
   style="fill:#820501;fill-opacity:1;stroke:#ffffff;stroke-width:0.666667;stroke-dasharray:none;stroke-opacity:1"
   x1="1.6"
   y1="-43.612"
   x2="55.724998"
   y2="-43.612"
   id="line3" />
		<line
   style="fill:#820501;fill-opacity:1;stroke:#ffffff;stroke-width:0.666667;stroke-dasharray:none;stroke-opacity:1"
   x1="1.6"
   y1="-14"
   x2="55.786999"
   y2="-14"
   id="line4" />
		<line
   style="fill:#820501;fill-opacity:1;stroke:#ffffff;stroke-width:0.666667;stroke-dasharray:none;stroke-opacity:1"
   x1="1.6"
   y1="-10.225"
   x2="55.724998"
   y2="-10.225"
   id="line5" />
		<line
   style="fill:#820501;fill-opacity:1;stroke:#ffffff;stroke-width:0.666667;stroke-dasharray:none;stroke-opacity:1"
   x1="1.6"
   y1="-39.594002"
   x2="55.724998"
   y2="-39.594002"
   id="line6" />
		<line
   style="fill:#820501;fill-opacity:1;stroke:#ffffff;stroke-width:0.666667;stroke-dasharray:none;stroke-opacity:1"
   x1="1.6"
   y1="-36.312"
   x2="55.724998"
   y2="-36.312"
   id="line7" />
		<line
   style="fill:#820501;fill-opacity:1;stroke:#ffffff;stroke-width:0.666667;stroke-dasharray:none;stroke-opacity:1"
   x1="1.6"
   y1="-32.887001"
   x2="55.724998"
   y2="-32.887001"
   id="line8" />
		<line
   style="fill:#820501;fill-opacity:1;stroke:#ffffff;stroke-width:0.666667;stroke-dasharray:none;stroke-opacity:1"
   x1="1.6"
   y1="-28.837"
   x2="55.724998"
   y2="-28.837"
   id="line9" />
		<line
   style="fill:#820501;fill-opacity:1;stroke:#ffffff;stroke-width:0.666667;stroke-dasharray:none;stroke-opacity:1"
   x1="1.6"
   y1="-25.037001"
   x2="55.724998"
   y2="-25.037001"
   id="line10" />
		<line
   style="fill:#820501;fill-opacity:1;stroke:#ffffff;stroke-width:0.666667;stroke-dasharray:none;stroke-opacity:1"
   x1="1.6"
   y1="-20.837"
   x2="55.786999"
   y2="-20.837"
   id="line11" />
		<line
   style="fill:#820501;fill-opacity:1;stroke:#ffffff;stroke-width:0.666667;stroke-dasharray:none;stroke-opacity:1"
   x1="1.6"
   y1="-17.612"
   x2="55.724998"
   y2="-17.612"
   id="line12" />
		<line
   style="fill:#820501;fill-opacity:1;stroke:#ffffff;stroke-width:0.666667;stroke-dasharray:none;stroke-opacity:1"
   x1="1.6"
   y1="-2.437"
   x2="55.724998"
   y2="-2.437"
   id="line13" />
		<line
   style="fill:#820501;fill-opacity:1;stroke:#ffffff;stroke-width:0.666667;stroke-dasharray:none;stroke-opacity:1"
   x1="7.5250001"
   y1="-55.724998"
   x2="7.5250001"
   y2="-51.974998"
   id="line14" />
		<line
   style="fill:#820501;fill-opacity:1;stroke:#ffffff;stroke-width:0.666667;stroke-dasharray:none;stroke-opacity:1"
   x1="20.275"
   y1="-55.724998"
   x2="20.275"
   y2="-51.974998"
   id="line15" />
		<line
   style="fill:#820501;fill-opacity:1;stroke:#ffffff;stroke-width:0.666667;stroke-dasharray:none;stroke-opacity:1"
   x1="33.775002"
   y1="-55.724998"
   x2="33.775002"
   y2="-51.974998"
   id="line16" />
		<line
   style="fill:#820501;fill-opacity:1;stroke:#ffffff;stroke-width:0.666667;stroke-dasharray:none;stroke-opacity:1"
   x1="48.150002"
   y1="-55.724998"
   x2="48.150002"
   y2="-51.974998"
   id="line17" />
		<line
   style="fill:#820501;fill-opacity:1;stroke:#ffffff;stroke-width:0.666667;stroke-dasharray:none;stroke-opacity:1"
   x1="7.5250001"
   y1="-2.45"
   x2="7.5250001"
   y2="-1.6"
   id="line18" />
		<line
   style="fill:#820501;fill-opacity:1;stroke:#ffffff;stroke-width:0.666667;stroke-dasharray:none;stroke-opacity:1"
   x1="20.275"
   y1="-2.45"
   x2="20.275"
   y2="-1.6"
   id="line19" />
		<line
   style="fill:#820501;fill-opacity:1;stroke:#ffffff;stroke-width:0.666667;stroke-dasharray:none;stroke-opacity:1"
   x1="33.775002"
   y1="-2.45"
   x2="33.775002"
   y2="-1.6"
   id="line20" />
		<line
   style="fill:#820501;fill-opacity:1;stroke:#ffffff;stroke-width:0.666667;stroke-dasharray:none;stroke-opacity:1"
   x1="48.150002"
   y1="-2.45"
   x2="48.150002"
   y2="-1.6"
   id="line21" />
		<line
   style="fill:#820501;fill-opacity:1;stroke:#ffffff;stroke-width:0.666667;stroke-dasharray:none;stroke-opacity:1"
   x1="14.2"
   y1="-52.036999"
   x2="14.2"
   y2="-47.812"
   id="line22" />
		<line
   style="fill:#820501;fill-opacity:1;stroke:#ffffff;stroke-width:0.666667;stroke-dasharray:none;stroke-opacity:1"
   x1="29.075001"
   y1="-52.036999"
   x2="29.075001"
   y2="-47.812"
   id="line23" />
		<line
   style="fill:#820501;fill-opacity:1;stroke:#ffffff;stroke-width:0.666667;stroke-dasharray:none;stroke-opacity:1"
   x1="42.700001"
   y1="-52.036999"
   x2="42.700001"
   y2="-47.812"
   id="line24" />
		<line
   style="fill:#820501;fill-opacity:1;stroke:#ffffff;stroke-width:0.666667;stroke-dasharray:none;stroke-opacity:1"
   x1="55.525002"
   y1="-52.036999"
   x2="55.525002"
   y2="-47.812"
   id="line25" />
		<line
   style="fill:#820501;fill-opacity:1;stroke:#ffffff;stroke-width:0.666667;stroke-dasharray:none;stroke-opacity:1"
   x1="8.6370001"
   y1="-47.674999"
   x2="8.6370001"
   y2="-43.625"
   id="line26" />
		<line
   style="fill:#820501;fill-opacity:1;stroke:#ffffff;stroke-width:0.666667;stroke-dasharray:none;stroke-opacity:1"
   x1="21.888"
   y1="-47.674999"
   x2="21.888"
   y2="-43.625"
   id="line27" />
		<line
   style="fill:#820501;fill-opacity:1;stroke:#ffffff;stroke-width:0.666667;stroke-dasharray:none;stroke-opacity:1"
   x1="35.450001"
   y1="-47.674999"
   x2="35.450001"
   y2="-43.625"
   id="line28" />
		<line
   style="fill:#820501;fill-opacity:1;stroke:#ffffff;stroke-width:0.666667;stroke-dasharray:none;stroke-opacity:1"
   x1="50.388"
   y1="-47.674999"
   x2="50.388"
   y2="-43.625"
   id="line29" />
		<line
   style="fill:#820501;fill-opacity:1;stroke:#ffffff;stroke-width:0.666667;stroke-dasharray:none;stroke-opacity:1"
   x1="41.763"
   y1="-43.625"
   x2="41.763"
   y2="-39.625"
   id="line30" />
		<line
   style="fill:#820501;fill-opacity:1;stroke:#ffffff;stroke-width:0.666667;stroke-dasharray:none;stroke-opacity:1"
   x1="28.388"
   y1="-43.625"
   x2="28.388"
   y2="-39.625"
   id="line31" />
		<line
   style="fill:#820501;fill-opacity:1;stroke:#ffffff;stroke-width:0.666667;stroke-dasharray:none;stroke-opacity:1"
   x1="13.512"
   y1="-43.625"
   x2="13.512"
   y2="-39.625"
   id="line32" />
		<line
   style="fill:#820501;fill-opacity:1;stroke:#ffffff;stroke-width:0.666667;stroke-dasharray:none;stroke-opacity:1"
   x1="55.013"
   y1="-43.625"
   x2="55.013"
   y2="-39.625"
   id="line33" />
		<line
   style="fill:#820501;fill-opacity:1;stroke:#ffffff;stroke-width:0.666667;stroke-dasharray:none;stroke-opacity:1"
   x1="48.150002"
   y1="-39.625"
   x2="48.150002"
   y2="-36.325001"
   id="line34" />
		<line
   style="fill:#820501;fill-opacity:1;stroke:#ffffff;stroke-width:0.666667;stroke-dasharray:none;stroke-opacity:1"
   x1="33.525002"
   y1="-39.625"
   x2="33.525002"
   y2="-36.325001"
   id="line35" />
		<line
   style="fill:#820501;fill-opacity:1;stroke:#ffffff;stroke-width:0.666667;stroke-dasharray:none;stroke-opacity:1"
   x1="20.275"
   y1="-39.625"
   x2="20.275"
   y2="-36.325001"
   id="line36" />
		<line
   style="fill:#820501;fill-opacity:1;stroke:#ffffff;stroke-width:0.666667;stroke-dasharray:none;stroke-opacity:1"
   x1="7.5250001"
   y1="-39.625"
   x2="7.5250001"
   y2="-36.325001"
   id="line37" />
		<line
   style="fill:#820501;fill-opacity:1;stroke:#ffffff;stroke-width:0.666667;stroke-dasharray:none;stroke-opacity:1"
   x1="14.075"
   y1="-36.325001"
   x2="14.075"
   y2="-32.900002"
   id="line38" />
		<line
   style="fill:#820501;fill-opacity:1;stroke:#ffffff;stroke-width:0.666667;stroke-dasharray:none;stroke-opacity:1"
   x1="29.075001"
   y1="-36.325001"
   x2="29.075001"
   y2="-32.900002"
   id="line39" />
		<line
   style="fill:#820501;fill-opacity:1;stroke:#ffffff;stroke-width:0.666667;stroke-dasharray:none;stroke-opacity:1"
   x1="42.825001"
   y1="-36.325001"
   x2="42.825001"
   y2="-32.900002"
   id="line40" />
		<line
   style="fill:#820501;fill-opacity:1;stroke:#ffffff;stroke-width:0.666667;stroke-dasharray:none;stroke-opacity:1"
   x1="55.575001"
   y1="-36.325001"
   x2="55.575001"
   y2="-32.900002"
   id="line41" />
		<line
   style="fill:#820501;fill-opacity:1;stroke:#ffffff;stroke-width:0.666667;stroke-dasharray:none;stroke-opacity:1"
   x1="8.2620001"
   y1="-32.900002"
   x2="8.2620001"
   y2="-28.85"
   id="line42" />
		<line
   style="fill:#820501;fill-opacity:1;stroke:#ffffff;stroke-width:0.666667;stroke-dasharray:none;stroke-opacity:1"
   x1="21.763"
   y1="-32.900002"
   x2="21.763"
   y2="-28.85"
   id="line43" />
		<line
   style="fill:#820501;fill-opacity:1;stroke:#ffffff;stroke-width:0.666667;stroke-dasharray:none;stroke-opacity:1"
   x1="35.388"
   y1="-32.900002"
   x2="35.388"
   y2="-28.85"
   id="line44" />
		<line
   style="fill:#820501;fill-opacity:1;stroke:#ffffff;stroke-width:0.666667;stroke-dasharray:none;stroke-opacity:1"
   x1="50.263"
   y1="-32.900002"
   x2="50.263"
   y2="-28.85"
   id="line45" />
		<line
   style="fill:#820501;fill-opacity:1;stroke:#ffffff;stroke-width:0.666667;stroke-dasharray:none;stroke-opacity:1"
   x1="41.638"
   y1="-28.787001"
   x2="41.638"
   y2="-25.049999"
   id="line46" />
		<line
   style="fill:#820501;fill-opacity:1;stroke:#ffffff;stroke-width:0.666667;stroke-dasharray:none;stroke-opacity:1"
   x1="28.313"
   y1="-28.787001"
   x2="28.313"
   y2="-25.049999"
   id="line47" />
		<line
   style="fill:#820501;fill-opacity:1;stroke:#ffffff;stroke-width:0.666667;stroke-dasharray:none;stroke-opacity:1"
   x1="13.313"
   y1="-28.787001"
   x2="13.313"
   y2="-25.049999"
   id="line48" />
		<line
   style="fill:#820501;fill-opacity:1;stroke:#ffffff;stroke-width:0.666667;stroke-dasharray:none;stroke-opacity:1"
   x1="54.867001"
   y1="-28.787001"
   x2="54.867001"
   y2="-25.049999"
   id="line49" />
		<line
   style="fill:#820501;fill-opacity:1;stroke:#ffffff;stroke-width:0.666667;stroke-dasharray:none;stroke-opacity:1"
   x1="7.125"
   y1="-24.987"
   x2="7.125"
   y2="-20.85"
   id="line50" />
		<line
   style="fill:#820501;fill-opacity:1;stroke:#ffffff;stroke-width:0.666667;stroke-dasharray:none;stroke-opacity:1"
   x1="20.125"
   y1="-24.987"
   x2="20.125"
   y2="-20.85"
   id="line51" />
		<line
   style="fill:#820501;fill-opacity:1;stroke:#ffffff;stroke-width:0.666667;stroke-dasharray:none;stroke-opacity:1"
   x1="33.75"
   y1="-24.987"
   x2="33.75"
   y2="-20.85"
   id="line52" />
		<line
   style="fill:#820501;fill-opacity:1;stroke:#ffffff;stroke-width:0.666667;stroke-dasharray:none;stroke-opacity:1"
   x1="48"
   y1="-24.987"
   x2="48"
   y2="-20.85"
   id="line53" />
		<line
   style="fill:#820501;fill-opacity:1;stroke:#ffffff;stroke-width:0.666667;stroke-dasharray:none;stroke-opacity:1"
   x1="43.799999"
   y1="-20.787001"
   x2="43.799999"
   y2="-17.625"
   id="line54" />
		<line
   style="fill:#820501;fill-opacity:1;stroke:#ffffff;stroke-width:0.666667;stroke-dasharray:none;stroke-opacity:1"
   x1="29.65"
   y1="-20.787001"
   x2="29.65"
   y2="-17.625"
   id="line55" />
		<line
   style="fill:#820501;fill-opacity:1;stroke:#ffffff;stroke-width:0.666667;stroke-dasharray:none;stroke-opacity:1"
   x1="14.525"
   y1="-20.787001"
   x2="14.525"
   y2="-17.625"
   id="line56" />
		<line
   style="fill:#820501;fill-opacity:1;stroke:#ffffff;stroke-width:0.666667;stroke-dasharray:none;stroke-opacity:1"
   x1="2.108"
   y1="-20.787001"
   x2="2.108"
   y2="-17.625"
   id="line57" />
		<line
   style="fill:#820501;fill-opacity:1;stroke:#ffffff;stroke-width:0.666667;stroke-dasharray:none;stroke-opacity:1"
   x1="8.4829998"
   y1="-17.562"
   x2="8.4829998"
   y2="-14"
   id="line58" />
		<line
   style="fill:#820501;fill-opacity:1;stroke:#ffffff;stroke-width:0.666667;stroke-dasharray:none;stroke-opacity:1"
   x1="21.733"
   y1="-17.562"
   x2="21.733"
   y2="-14"
   id="line59" />
		<line
   style="fill:#820501;fill-opacity:1;stroke:#ffffff;stroke-width:0.666667;stroke-dasharray:none;stroke-opacity:1"
   x1="35.358002"
   y1="-17.562"
   x2="35.358002"
   y2="-14"
   id="line60" />
		<line
   style="fill:#820501;fill-opacity:1;stroke:#ffffff;stroke-width:0.666667;stroke-dasharray:none;stroke-opacity:1"
   x1="50.233002"
   y1="-17.562"
   x2="50.233002"
   y2="-14"
   id="line61" />
		<line
   style="fill:#820501;fill-opacity:1;stroke:#ffffff;stroke-width:0.666667;stroke-dasharray:none;stroke-opacity:1"
   x1="41.882999"
   y1="-13.95"
   x2="41.882999"
   y2="-10.187"
   id="line62" />
		<line
   style="fill:#820501;fill-opacity:1;stroke:#ffffff;stroke-width:0.666667;stroke-dasharray:none;stroke-opacity:1"
   x1="28.007999"
   y1="-13.95"
   x2="28.007999"
   y2="-10.187"
   id="line63" />
		<line
   style="fill:#820501;fill-opacity:1;stroke:#ffffff;stroke-width:0.666667;stroke-dasharray:none;stroke-opacity:1"
   x1="13.458"
   y1="-13.95"
   x2="13.458"
   y2="-10.187"
   id="line64" />
		<line
   style="fill:#820501;fill-opacity:1;stroke:#ffffff;stroke-width:0.666667;stroke-dasharray:none;stroke-opacity:1"
   x1="55.333"
   y1="-13.95"
   x2="55.333"
   y2="-10.187"
   id="line65" />
		<line
   style="fill:#820501;fill-opacity:1;stroke:#ffffff;stroke-width:0.666667;stroke-dasharray:none;stroke-opacity:1"
   x1="1.6"
   y1="-5.8119998"
   x2="55.724998"
   y2="-5.8119998"
   id="line66" />
		<line
   style="fill:#820501;fill-opacity:1;stroke:#ffffff;stroke-width:0.666667;stroke-dasharray:none;stroke-opacity:1"
   x1="11.896"
   y1="-5.8379998"
   x2="11.896"
   y2="-2.375"
   id="line67" />
		<line
   style="fill:#820501;fill-opacity:1;stroke:#ffffff;stroke-width:0.666667;stroke-dasharray:none;stroke-opacity:1"
   x1="26.333"
   y1="-5.8379998"
   x2="26.333"
   y2="-2.375"
   id="line68" />
		<line
   style="fill:#820501;fill-opacity:1;stroke:#ffffff;stroke-width:0.666667;stroke-dasharray:none;stroke-opacity:1"
   x1="39.958"
   y1="-5.8379998"
   x2="39.958"
   y2="-2.375"
   id="line69" />
		<line
   style="fill:#820501;fill-opacity:1;stroke:#ffffff;stroke-width:0.666667;stroke-dasharray:none;stroke-opacity:1"
   x1="53.333"
   y1="-5.8379998"
   x2="53.333"
   y2="-2.375"
   id="line70" />
		<line
   style="fill:#820501;fill-opacity:1;stroke:#ffffff;stroke-width:0.666667;stroke-dasharray:none;stroke-opacity:1"
   x1="6.171"
   y1="-10.187"
   x2="6.171"
   y2="-5.8379998"
   id="line71" />
		<line
   style="fill:#820501;fill-opacity:1;stroke:#ffffff;stroke-width:0.666667;stroke-dasharray:none;stroke-opacity:1"
   x1="19.171"
   y1="-10.187"
   x2="19.171"
   y2="-5.8379998"
   id="line72" />
		<line
   style="fill:#820501;fill-opacity:1;stroke:#ffffff;stroke-width:0.666667;stroke-dasharray:none;stroke-opacity:1"
   x1="33.171001"
   y1="-10.187"
   x2="33.171001"
   y2="-5.8379998"
   id="line73" />
		<line
   style="fill:#820501;fill-opacity:1;stroke:#ffffff;stroke-width:0.666667;stroke-dasharray:none;stroke-opacity:1"
   x1="47.733002"
   y1="-10.187"
   x2="47.733002"
   y2="-5.8379998"
   id="line74" />
	</g></pattern></defs><g
     inkscape:label="Layer 1"
     inkscape:groupmode="layer"
     id="layer1"
     transform="translate(-1.3131659,-1.3131659)"><circle
       style="fill:#ffffff;stroke:#820501;stroke-width:1.05833;stroke-linejoin:round;stroke-dasharray:none;stroke-opacity:1"
       id="path1"
       cx="29.765625"
       cy="29.765625"
       r="27.923294" /><path
       style="fill:url(#pattern4);fill-opacity:1;stroke:none;stroke-width:1.05833;stroke-linejoin:round;stroke-dasharray:none;stroke-opacity:1"
       id="path1-6"
       sodipodi:type="arc"
       sodipodi:cx="29.765625"
       sodipodi:cy="29.76561"
       sodipodi:rx="27.923294"
       sodipodi:ry="27.923309"
       sodipodi:start="0.68932026"
       sodipodi:end="2.4463991"
       sodipodi:open="true"
       sodipodi:arc-type="arc"
       d="M 51.313431,47.525192 A 27.923294,27.923309 0 0 1 29.847626,57.688799 27.923294,27.923309 0 0 1 8.3224971,47.651441" /><path
       style="fill:none;fill-opacity:1;stroke:#820501;stroke-width:0.5;stroke-linejoin:round;stroke-dasharray:none;stroke-opacity:1"
       d="m 3.6163747,39.559859 c 4.138484,0.02378 6.2053959,-2.198613 6.2053959,-2.198613 0,0 2.2962224,2.613043 7.7984874,2.613043 5.359558,0 8.250158,-2.54885 8.250158,-2.54885 0,0 2.153309,2.503591 7.767544,2.503591 6.374918,0 8.666269,-2.439395 8.666269,-2.439395 0,0 2.1915,2.521292 13.46714,2.445141"
       id="path4"
       sodipodi:nodetypes="ccscscc" /><g
       id="g3"><path
         style="fill:none;fill-opacity:1;stroke:#820501;stroke-width:0.5;stroke-linejoin:round;stroke-dasharray:none;stroke-opacity:1"
         d="M 3.953882,26.187305 C 6.7065637,22.414101 9.6554945,22.090167 9.6554945,22.090167"
         id="path5"
         sodipodi:nodetypes="cc" /><path
         style="fill:none;fill-opacity:1;stroke:#820501;stroke-width:0.5;stroke-linejoin:round;stroke-dasharray:none;stroke-opacity:1"
         d="M 8.3578465,26.1869 C 11.110529,23.732911 14.05946,23.522233 14.05946,23.522233"
         id="path5-8"
         sodipodi:nodetypes="cc" /><path
         style="fill:none;fill-opacity:1;stroke:#820501;stroke-width:0.5;stroke-linejoin:round;stroke-dasharray:none;stroke-opacity:1"
         d="m 12.724707,26.561024 c 0.944592,-1.578335 4.192402,-1.650479 4.192402,-1.650479"
         id="path5-4"
         sodipodi:nodetypes="cc" /></g><path
       style="fill:none;fill-opacity:0.504505;stroke:#820501;stroke-width:0.529167;stroke-linejoin:bevel;stroke-dasharray:none;stroke-opacity:1;paint-order:markers fill stroke"
       d="m 27.132092,27.35169 c 0,0 1.01301,1.249326 0,2.080507 -0.830862,0.694333 -1.782577,1.073662 -1.939701,2.307933 -0.06285,1.47062 3.331031,2.412935 3.331031,2.412935"
       id="path12"
       sodipodi:nodetypes="cccc" /><path
       style="fill:none;fill-opacity:1;stroke:#820501;stroke-width:0.5;stroke-linejoin:round;stroke-dasharray:none;stroke-opacity:1"
       d="M 3.8826326,18.906133 C 24.562675,19.09286 19.076273,32.485408 57.542085,32.625453"
       id="path6"
       sodipodi:nodetypes="cc" /><path
       style="fill:none;fill-opacity:1;stroke:#820501;stroke-width:0.5;stroke-linejoin:round;stroke-dasharray:none;stroke-opacity:1"
       d="m 22.137724,24.676925 11.286453,-12.119518 5.741861,6.260535 2.5675,-2.572672 4.341408,5.41509 2.660864,-2.5675 8.806595,8.49609"
       id="path7" /><path
       style="fill:#820501;fill-opacity:1;stroke:none;stroke-width:0.176389;stroke-linejoin:round;stroke-dasharray:none;stroke-opacity:1"
       d="m 39.166038,18.817942 -3.17186,3.567478 2.202381,2.531097 -1.775055,1.906541 -1.117626,-0.788913 0.328713,1.44634 -1.21624,1.249113 -4.437639,-4.240409 v -3.944568 l 1.912927,1.072819 -0.954789,-1.942224 0.799738,-1.950384 2.342094,2.98678 -1.917742,-3.549862 -0.0081,-1.852457 0.856863,0.0082 -0.723474,-1.538044 1.138008,-1.222003 z"
       id="path8" /><path
       style="fill:#820501;fill-opacity:1;stroke:none;stroke-width:0.176389;stroke-linejoin:round;stroke-dasharray:none;stroke-opacity:1"
       d="m 40.607429,17.373645 1.050208,2.687174 -1.296556,-0.930835 -0.522671,1.435472 0.707893,1.319708 -1.292075,-0.376233 -0.264948,1.383379 3.449764,3.183507 1.169215,-1.238674 -0.503573,-1.400743 1.163356,0.195412 1.806904,-1.971452 -4.341408,-5.41509 z"
       id="path9"
       sodipodi:nodetypes="cccccccccccc" /><path
       style="fill:#820501;fill-opacity:1;stroke:none;stroke-width:0.176389;stroke-linejoin:round;stroke-dasharray:none;stroke-opacity:1"
       d="m 48.270226,19.542108 -0.148707,2.312456 1.673418,2.231225 -1.966624,-1.036947 -0.314661,1.408818 1.015495,1.508938 -1.265791,-0.493444 -0.0071,4.292471 4.224803,2.716268 6.061077,0.14356 2.65e-4,-5.036503 -8.806595,-8.49609 z"
       id="path10" /><g
       id="g12"
       inkscape:label="tree"><rect
         style="fill:#820501;fill-opacity:1;stroke:none;stroke-width:0.529166;stroke-linejoin:round;stroke-dasharray:none;stroke-opacity:1"
         id="rect12"
         width="0.38794562"
         height="4.0904837"
         x="22.694145"
         y="25.005909" /><path
         style="fill:#820501;fill-opacity:1;stroke:none;stroke-width:0.00088195;stroke-linejoin:round;stroke-dasharray:none;stroke-opacity:1"
         d="m 23.111041,17.957247 -0.341176,0.593072 0.294297,0.279712 -0.474218,0.03305 -0.158065,0.274766 0.566284,0.221646 -0.804749,0.192883 -0.252846,0.395353 0.531301,0.09771 -0.424061,0.266049 0.433449,0.141242 0.175991,0.162453 -1.048046,1.480231 0.816073,0.395081 -1.804901,1.512523 1.573582,0.444801 -1.439237,1.228607 2.118621,-0.512506 2.483513,0.80423 -1.248404,-1.921793 1.152708,-0.06014 -1.372838,-1.548709 1.0487,0.01446 -1.24253,-1.901609 0.176518,-0.158257 -0.666449,-0.207361 0.957228,-0.05334 0.15937,-0.142884 -0.163043,-0.273679 -0.575487,-0.119716 0.415159,-0.149406 -0.14517,-0.243677 -0.584144,-0.151882 0.398164,-0.160299 z"
         id="path11"
         sodipodi:nodetypes="ccccccccccccccccccccccccccccccccccc" /></g><g
       id="g12-0"
       inkscape:label="tree"
       transform="matrix(0.73950401,0,0,0.73950401,2.5305963,3.840615)"
       style="stroke-width:1.35226"><rect
         style="fill:#820501;fill-opacity:1;stroke:none;stroke-width:0.715568;stroke-linejoin:round;stroke-dasharray:none;stroke-opacity:1"
         id="rect12-9"
         width="0.38794562"
         height="4.0904837"
         x="22.694145"
         y="25.005909" /><path
         style="fill:#820501;fill-opacity:1;stroke:none;stroke-width:0.00119262;stroke-linejoin:round;stroke-dasharray:none;stroke-opacity:1"
         d="m 23.111041,17.957247 -0.341176,0.593072 0.294297,0.279712 -0.474218,0.03305 -0.158065,0.274766 0.566284,0.221646 -0.804749,0.192883 -0.252846,0.395353 0.531301,0.09771 -0.424061,0.266049 0.433449,0.141242 0.175991,0.162453 -1.048046,1.480231 0.816073,0.395081 -1.804901,1.512523 1.573582,0.444801 -1.439237,1.228607 2.118621,-0.512506 2.483513,0.80423 -1.248404,-1.921793 1.152708,-0.06014 -1.372838,-1.548709 1.0487,0.01446 -1.24253,-1.901609 0.176518,-0.158257 -0.666449,-0.207361 0.957228,-0.05334 0.15937,-0.142884 -0.163043,-0.273679 -0.575487,-0.119716 0.415159,-0.149406 -0.14517,-0.243677 -0.584144,-0.151882 0.398164,-0.160299 z"
         id="path11-3"
         sodipodi:nodetypes="ccccccccccccccccccccccccccccccccccc" /></g><g
       id="g12-0-2"
       inkscape:label="tree"
       transform="matrix(0.57550506,0,0,0.57550506,2.9169192,5.5586944)"
       style="stroke-width:1.7376"><rect
         style="fill:#820501;fill-opacity:1;stroke:none;stroke-width:0.91948;stroke-linejoin:round;stroke-dasharray:none;stroke-opacity:1"
         id="rect12-9-9"
         width="0.38794562"
         height="4.0904837"
         x="22.694145"
         y="25.005909" /><path
         style="fill:#820501;fill-opacity:1;stroke:none;stroke-width:0.00153248;stroke-linejoin:round;stroke-dasharray:none;stroke-opacity:1"
         d="m 23.111041,17.957247 -0.341176,0.593072 0.294297,0.279712 -0.474218,0.03305 -0.158065,0.274766 0.566284,0.221646 -0.804749,0.192883 -0.252846,0.395353 0.531301,0.09771 -0.424061,0.266049 0.433449,0.141242 0.175991,0.162453 -1.048046,1.480231 0.816073,0.395081 -1.804901,1.512523 1.573582,0.444801 -1.439237,1.228607 2.118621,-0.512506 2.483513,0.80423 -1.248404,-1.921793 1.152708,-0.06014 -1.372838,-1.548709 1.0487,0.01446 -1.24253,-1.901609 0.176518,-0.158257 -0.666449,-0.207361 0.957228,-0.05334 0.15937,-0.142884 -0.163043,-0.273679 -0.575487,-0.119716 0.415159,-0.149406 -0.14517,-0.243677 -0.584144,-0.151882 0.398164,-0.160299 z"
         id="path11-3-7"
         sodipodi:nodetypes="ccccccccccccccccccccccccccccccccccc" /></g><text
       xml:space="preserve"
       style="font-style:normal;font-variant:normal;font-weight:500;font-stretch:normal;font-size:4.9389px;line-height:1.5;font-family:Roboto;-inkscape-font-specification:'Roboto, Medium';font-variant-ligatures:normal;font-variant-caps:normal;font-variant-numeric:normal;font-variant-east-asian:normal;text-align:center;text-anchor:middle;fill:#820501;fill-opacity:1;stroke-width:0.529167;stroke-linejoin:bevel;paint-order:markers fill stroke"
       x="29.74464"
       y="45.203671"
       id="text1"><tspan
         sodipodi:role="line"
         id="tspan1"
         style="font-style:normal;font-variant:normal;font-weight:500;font-stretch:normal;font-size:4.9389px;font-family:Roboto;-inkscape-font-specification:'Roboto, Medium';font-variant-ligatures:normal;font-variant-caps:normal;font-variant-numeric:normal;font-variant-east-asian:normal;fill:#820501;fill-opacity:1;stroke-width:0.529167"
         x="29.74464"
         y="45.203671">TU Geosciences</tspan></text><path
       style="fill:#c86a67;fill-opacity:0.50450498;stroke:none;stroke-width:0.529167;stroke-linejoin:bevel;stroke-opacity:1;paint-order:markers fill stroke"
       d="M 28.845968,10.739759 C 22.860323,8.9191586 18.995954,6.2952927 18.995954,6.2952927 c 0,0 4.859844,-0.1088644 10.677749,1.6618482 z"
       id="path3"
       sodipodi:nodetypes="cccc" /><circle
       style="fill:#ffffff;fill-opacity:1;stroke:#820501;stroke-width:0.529167;stroke-linejoin:bevel;stroke-dasharray:none;stroke-opacity:1;paint-order:markers fill stroke"
       id="path2"
       cx="-0.61751658"
       cy="30.710743"
       r="1.187343"
       transform="rotate(-73.434041)" /><path
       style="fill:#820501;fill-opacity:1;stroke:none;stroke-width:0.529167;stroke-linejoin:bevel;stroke-dasharray:none;stroke-opacity:1;paint-order:markers fill stroke"
       d="m 27.999141,33.734378 c -0.899188,-0.02199 -2.548964,1.270308 -1.394283,1.787346 1.15468,0.517039 4.181784,0.957985 5.807239,0.34226 1.625454,-0.615725 2.125766,-1.152268 0.915321,-1.370544 -1.210445,-0.218275 -4.083247,-0.956974 -5.328277,-0.759062 z"
       id="path13"
       sodipodi:nodetypes="csssc" /><path
       style="fill:none;fill-opacity:1;stroke:#820501;stroke-width:0.529167;stroke-linejoin:bevel;stroke-dasharray:none;stroke-opacity:1;paint-order:markers fill stroke"
       d="m 31.440369,35.540385 c 0,0 0.260592,0.97903 0.889088,1.570874 0.628497,0.591844 1.796863,0.575196 2.242918,1.556515 0.222207,0.488856 1.118566,1.170713 1.118566,1.170713"
       id="path14"
       sodipodi:nodetypes="cssc" /></g></svg>
